<?xml version="1.0" encoding="utf-8"?>
<!-- Generator: Adobe Illustrator 16.0.4, SVG Export Plug-In . SVG Version: 6.00 Build 0)  -->
<!DOCTYPE svg PUBLIC "-//W3C//DTD SVG 1.1//EN" "http://www.w3.org/Graphics/SVG/1.1/DTD/svg11.dtd">
<svg version="1.1" id="圖層_1" xmlns="http://www.w3.org/2000/svg" xmlns:xlink="http://www.w3.org/1999/xlink" x="0px" y="0px"
	 width="18px" height="212px" viewBox="0 0 18 212" enable-background="new 0 0 18 212" xml:space="preserve">
<g>
	<g>
		<g>
			<path fill="#FFFFFF" d="M10.846,9.459H9.901l-0.319,1.812H8.661l0.32-1.812H5.172l5.573-6.325h0.271L10.06,8.558h0.943
				L10.846,9.459z M9.139,8.558l0.516-2.929L7.066,8.558H9.139z"/>
			<path fill="#FFFFFF" d="M9.685,11.394H8.514l0.32-1.812H4.899l5.791-6.571h0.475l-0.026,0.145l-0.931,5.279h0.942l-0.2,1.148
				h-0.945L9.685,11.394z M8.808,11.147h0.671l0.319-1.812h0.943l0.116-0.654H9.912l0.026-0.145l0.932-5.279h-0.069L5.445,9.335
				h3.682L8.808,11.147z M9.242,8.682H6.793l3.06-3.461L9.242,8.682z M7.34,8.435h1.695l0.423-2.396L7.34,8.435z"/>
		</g>
		<g>
			<path fill="#FFFFFF" d="M9.685,11.394H8.514l0.32-1.812H4.899l5.791-6.571h0.475l-0.026,0.145l-0.931,5.279h0.942l-0.2,1.148
				h-0.945L9.685,11.394z M8.808,11.147h0.671l0.319-1.812h0.943l0.116-0.654H9.912l0.026-0.145l0.932-5.279h-0.069L5.445,9.335
				h3.682L8.808,11.147z M9.242,8.682H6.793l3.06-3.461L9.242,8.682z M7.34,8.435h1.695l0.423-2.396L7.34,8.435z"/>
			<path fill="#FFFFFF" d="M9.788,11.517H8.367l0.319-1.812H4.626l6.008-6.818h0.678l-0.052,0.29l-0.906,5.134h0.942l-0.242,1.394
				h-0.946L9.788,11.517z M8.954,11.024h0.421l0.32-1.812h0.943l0.071-0.408H9.765l0.925-5.233L5.718,9.212h3.556L8.954,11.024z
				 M5.172,9.459l5.573-6.325h0.271l-0.025,0.145L10.06,8.558h0.943H10.06l0.026-0.144l0.931-5.28h-0.271L5.172,9.459z M9.346,8.805
				H6.52l3.53-3.994L9.346,8.805z M9.139,8.558l0.516-2.929v0L9.139,8.558z M7.613,8.312h1.319l0.329-1.864L7.613,8.312z"/>
		</g>
	</g>
</g>
<g>
	<g>
		<g>
			<path fill="#FFFFFF" d="M11.838,19.044H9.05l-0.701,1.942c0.325-0.08,0.625-0.119,0.9-0.119c0.701,0,1.243,0.248,1.626,0.742
				c0.382,0.497,0.506,1.127,0.371,1.894c-0.136,0.766-0.503,1.422-1.106,1.969c-0.603,0.546-1.327,0.819-2.172,0.819
				c-0.651,0-1.166-0.199-1.543-0.596c-0.379-0.398-0.554-0.945-0.524-1.639h0.943c0.017,0.435,0.15,0.767,0.399,0.999
				c0.248,0.231,0.557,0.347,0.926,0.347c0.491,0,0.947-0.187,1.368-0.559c0.419-0.373,0.679-0.833,0.776-1.384
				c0.087-0.492,0.004-0.896-0.248-1.215c-0.251-0.317-0.637-0.477-1.158-0.477c-0.521,0-1.154,0.147-1.901,0.445l1.475-4.058h3.516
				L11.838,19.044z"/>
			<path fill="#FFFFFF" d="M7.967,26.415c-0.683,0-1.232-0.214-1.633-0.635c-0.401-0.422-0.59-1.003-0.559-1.729l0.005-0.118h1.18
				l0.005,0.119c0.015,0.398,0.136,0.706,0.359,0.913c0.227,0.211,0.501,0.314,0.842,0.314c0.458,0,0.89-0.178,1.286-0.528
				c0.397-0.352,0.645-0.793,0.737-1.312c0.08-0.459,0.008-0.824-0.224-1.116c-0.229-0.29-0.576-0.431-1.061-0.431
				c-0.503,0-1.127,0.147-1.855,0.437l-0.255,0.102l1.597-4.397h3.749l-0.201,1.136H9.136l-0.595,1.65
				c1.084-0.215,1.904,0.035,2.431,0.717c0.402,0.522,0.536,1.191,0.395,1.989c-0.141,0.792-0.525,1.478-1.145,2.04
				C9.6,26.128,8.84,26.415,7.967,26.415z M6.019,24.179c-0.004,0.601,0.162,1.082,0.494,1.431c0.352,0.37,0.842,0.558,1.454,0.558
				c0.81,0,1.513-0.265,2.089-0.788c0.578-0.523,0.938-1.162,1.068-1.899c0.128-0.726,0.011-1.331-0.348-1.796
				c-0.505-0.652-1.298-0.849-2.399-0.578l-0.224,0.055l0.808-2.24h2.771l0.113-0.643H8.565l-1.353,3.722
				c1.415-0.516,2.439-0.476,2.947,0.167c0.272,0.346,0.365,0.788,0.271,1.313c-0.102,0.575-0.376,1.064-0.815,1.454
				c-0.442,0.392-0.93,0.59-1.449,0.59c-0.4,0-0.74-0.128-1.01-0.38c-0.248-0.231-0.393-0.555-0.43-0.965H6.019z"/>
		</g>
		<g>
			<path fill="#FFFFFF" d="M7.967,26.415c-0.683,0-1.232-0.214-1.633-0.635c-0.401-0.422-0.59-1.003-0.559-1.729l0.005-0.118h1.18
				l0.005,0.119c0.015,0.398,0.136,0.706,0.359,0.913c0.227,0.211,0.501,0.314,0.842,0.314c0.458,0,0.89-0.178,1.286-0.528
				c0.397-0.352,0.645-0.793,0.737-1.312c0.08-0.459,0.008-0.824-0.224-1.116c-0.229-0.29-0.576-0.431-1.061-0.431
				c-0.503,0-1.127,0.147-1.855,0.437l-0.255,0.102l1.597-4.397h3.749l-0.201,1.136H9.136l-0.595,1.65
				c1.084-0.215,1.904,0.035,2.431,0.717c0.402,0.522,0.536,1.191,0.395,1.989c-0.141,0.792-0.525,1.478-1.145,2.04
				C9.6,26.128,8.84,26.415,7.967,26.415z M6.019,24.179c-0.004,0.601,0.162,1.082,0.494,1.431c0.352,0.37,0.842,0.558,1.454,0.558
				c0.81,0,1.513-0.265,2.089-0.788c0.578-0.523,0.938-1.162,1.068-1.899c0.128-0.726,0.011-1.331-0.348-1.796
				c-0.505-0.652-1.298-0.849-2.399-0.578l-0.224,0.055l0.808-2.24h2.771l0.113-0.643H8.565l-1.353,3.722
				c1.415-0.516,2.439-0.476,2.947,0.167c0.272,0.346,0.365,0.788,0.271,1.313c-0.102,0.575-0.376,1.064-0.815,1.454
				c-0.442,0.392-0.93,0.59-1.449,0.59c-0.4,0-0.74-0.128-1.01-0.38c-0.248-0.231-0.393-0.555-0.43-0.965H6.019z"/>
			<path fill="#FFFFFF" d="M7.967,26.538c-0.718,0-1.297-0.227-1.723-0.673c-0.425-0.447-0.624-1.06-0.592-1.819l0.011-0.236H7.08
				l0.009,0.237c0.014,0.365,0.122,0.644,0.32,0.827c0.203,0.19,0.451,0.282,0.758,0.282c0.427,0,0.832-0.167,1.204-0.497
				c0.375-0.333,0.61-0.751,0.697-1.241c0.074-0.422,0.009-0.755-0.198-1.019c-0.426-0.54-1.409-0.499-2.774,0.044l-0.511,0.203
				l1.722-4.736h3.982l-0.245,1.383H9.223l-0.494,1.37c1.031-0.152,1.818,0.121,2.34,0.799c0.426,0.55,0.567,1.252,0.42,2.085
				c-0.146,0.819-0.543,1.529-1.184,2.109C9.659,26.241,8.872,26.538,7.967,26.538z M10.477,25.126
				c-0.103,0.121-0.216,0.235-0.337,0.346c-0.433,0.393-0.935,0.646-1.497,0.756c0.562-0.11,1.064-0.363,1.497-0.756
				C10.261,25.362,10.374,25.247,10.477,25.126z M6.144,24.302c0.018,0.51,0.172,0.922,0.458,1.223
				c0.328,0.345,0.787,0.52,1.365,0.52c0.779,0,1.454-0.254,2.007-0.756c0.559-0.505,0.905-1.121,1.029-1.829
				c0.122-0.69,0.013-1.262-0.323-1.699c-0.478-0.619-1.223-0.791-2.272-0.534l-0.447,0.11l0.916-2.539h2.754l0.07-0.396H8.652
				L7.417,21.8c1.361-0.45,2.334-0.346,2.838,0.292c0.297,0.375,0.397,0.85,0.298,1.411c-0.107,0.603-0.395,1.116-0.855,1.525
				c-0.465,0.412-0.98,0.621-1.531,0.621c-0.433,0-0.801-0.139-1.094-0.414c-0.248-0.23-0.401-0.543-0.456-0.933H6.144z
				 M8.167,25.402c0.489,0,0.949-0.188,1.368-0.559c0.017-0.014,0.032-0.029,0.047-0.043c-0.016,0.015-0.031,0.029-0.047,0.044
				C9.116,25.214,8.656,25.402,8.167,25.402z M5.897,24.133c-0.009,0.453,0.072,0.844,0.244,1.168
				c-0.166-0.314-0.248-0.69-0.245-1.124L5.897,24.133z M5.899,24.056h0.94l0.01,0.112c0.004,0.041,0.009,0.081,0.014,0.12
				c-0.011-0.074-0.018-0.151-0.021-0.232H5.899z M7.007,22.208l-0.002,0.005C7.4,22.055,7.766,21.939,8.1,21.865
				c-0.262,0.058-0.544,0.142-0.845,0.251L7.007,22.208z M9.05,19.044l-0.701,1.942c0.056-0.013,0.111-0.026,0.166-0.037
				l-0.164,0.032L9.05,19.044z M8.479,18.155h3.515l-0.084,0.472l0.085-0.472H8.479z"/>
		</g>
	</g>
</g>
<g>
	<g>
		<g>
			<path fill="#FFFFFF" d="M8.873,36.674c0.243-0.066,0.469-0.098,0.679-0.098c0.599,0,1.08,0.238,1.445,0.716
				c0.365,0.477,0.487,1.055,0.366,1.735c-0.119,0.68-0.463,1.257-1.031,1.73c-0.567,0.474-1.202,0.711-1.903,0.711
				c-0.702,0-1.244-0.238-1.626-0.716c-0.381-0.478-0.513-1.059-0.391-1.747c0.059-0.332,0.183-0.675,0.376-1.025
				c0.192-0.35,0.502-0.779,0.931-1.286l3.041-3.59l0.694,0.488L8.873,36.674z M8.611,40.557c0.426,0,0.82-0.152,1.181-0.456
				s0.58-0.673,0.655-1.106c0.077-0.434-0.011-0.803-0.259-1.106c-0.25-0.303-0.592-0.456-1.026-0.456
				c-0.435,0-0.83,0.152-1.187,0.456c-0.357,0.304-0.574,0.672-0.651,1.106c-0.076,0.434,0.012,0.802,0.267,1.106
				C7.844,40.405,8.185,40.557,8.611,40.557z"/>
			<path fill="#FFFFFF" d="M8.429,41.592c-0.737,0-1.317-0.256-1.723-0.762c-0.403-0.505-0.543-1.126-0.416-1.845
				c0.062-0.347,0.192-0.705,0.39-1.063c0.194-0.355,0.512-0.794,0.945-1.305l3.113-3.677l0.896,0.631L9.196,36.48
				c0.807-0.122,1.442,0.139,1.9,0.737c0.385,0.502,0.516,1.119,0.39,1.833c-0.125,0.706-0.486,1.312-1.074,1.803
				C9.823,41.343,9.156,41.592,8.429,41.592z M10.781,33.27l-2.968,3.504c-0.422,0.499-0.73,0.924-0.917,1.265
				c-0.185,0.335-0.307,0.667-0.363,0.988c-0.116,0.655,0.003,1.195,0.366,1.648c0.362,0.451,0.862,0.669,1.53,0.669
				s1.282-0.229,1.824-0.683c0.542-0.452,0.876-1.009,0.989-1.657c0.113-0.642-0.002-1.194-0.343-1.639
				c-0.465-0.608-1.116-0.814-1.994-0.574l-0.378,0.102l2.747-3.278L10.781,33.27z M8.611,40.681c-0.463,0-0.839-0.168-1.116-0.501
				c-0.277-0.331-0.375-0.736-0.292-1.207c0.081-0.461,0.314-0.857,0.692-1.179c0.378-0.321,0.804-0.485,1.267-0.485
				c0.471,0,0.848,0.168,1.121,0.5c0.272,0.333,0.368,0.738,0.286,1.207c-0.081,0.46-0.316,0.857-0.698,1.179
				C9.49,40.517,9.066,40.681,8.611,40.681z M9.162,37.556c-0.403,0-0.775,0.144-1.107,0.426c-0.333,0.283-0.538,0.631-0.609,1.034
				c-0.071,0.4,0.008,0.729,0.239,1.006c0.231,0.277,0.534,0.412,0.926,0.412c0.396,0,0.766-0.144,1.101-0.427
				c0.336-0.283,0.543-0.631,0.614-1.033c0.071-0.4-0.006-0.729-0.233-1.007C9.866,37.69,9.561,37.556,9.162,37.556z"/>
		</g>
		<g>
			<path fill="#FFFFFF" d="M8.429,41.592c-0.737,0-1.317-0.256-1.723-0.762c-0.403-0.505-0.543-1.126-0.416-1.845
				c0.062-0.347,0.192-0.705,0.39-1.063c0.194-0.355,0.512-0.794,0.945-1.305l3.113-3.677l0.896,0.631L9.196,36.48
				c0.807-0.122,1.442,0.139,1.9,0.737c0.385,0.502,0.516,1.119,0.39,1.833c-0.125,0.706-0.486,1.312-1.074,1.803
				C9.823,41.343,9.156,41.592,8.429,41.592z M10.781,33.27l-2.968,3.504c-0.422,0.499-0.73,0.924-0.917,1.265
				c-0.185,0.335-0.307,0.667-0.363,0.988c-0.116,0.655,0.003,1.195,0.366,1.648c0.362,0.451,0.862,0.669,1.53,0.669
				s1.282-0.229,1.824-0.683c0.542-0.452,0.876-1.009,0.989-1.657c0.113-0.642-0.002-1.194-0.343-1.639
				c-0.465-0.608-1.116-0.814-1.994-0.574l-0.378,0.102l2.747-3.278L10.781,33.27z M8.611,40.681c-0.463,0-0.839-0.168-1.116-0.501
				c-0.277-0.331-0.375-0.736-0.292-1.207c0.081-0.461,0.314-0.857,0.692-1.179c0.378-0.321,0.804-0.485,1.267-0.485
				c0.471,0,0.848,0.168,1.121,0.5c0.272,0.333,0.368,0.738,0.286,1.207c-0.081,0.46-0.316,0.857-0.698,1.179
				C9.49,40.517,9.066,40.681,8.611,40.681z M9.162,37.556c-0.403,0-0.775,0.144-1.107,0.426c-0.333,0.283-0.538,0.631-0.609,1.034
				c-0.071,0.4,0.008,0.729,0.239,1.006c0.231,0.277,0.534,0.412,0.926,0.412c0.396,0,0.766-0.144,1.101-0.427
				c0.336-0.283,0.543-0.631,0.614-1.033c0.071-0.4-0.006-0.729-0.233-1.007C9.866,37.69,9.561,37.556,9.162,37.556z"/>
			<path fill="#FFFFFF" d="M8.429,41.715c-0.776,0-1.388-0.272-1.819-0.809c-0.426-0.535-0.575-1.188-0.441-1.943
				c0.063-0.36,0.198-0.73,0.403-1.101c0.2-0.365,0.522-0.811,0.959-1.326l3.186-3.763l1.099,0.772l-2.333,2.784
				c0.701-0.037,1.278,0.249,1.71,0.812c0.406,0.532,0.545,1.181,0.413,1.929c-0.129,0.736-0.505,1.367-1.116,1.877
				C9.879,41.457,9.186,41.715,8.429,41.715z M11.025,39.953c-0.174,0.295-0.406,0.564-0.693,0.805
				c-0.264,0.22-0.543,0.39-0.838,0.508c0.295-0.118,0.574-0.288,0.838-0.508C10.619,40.518,10.852,40.248,11.025,39.953z
				 M10.802,33.436l-2.895,3.419c-0.417,0.492-0.721,0.911-0.903,1.244c-0.178,0.322-0.295,0.642-0.351,0.951
				c-0.109,0.619,0.002,1.125,0.341,1.549c0.337,0.419,0.806,0.624,1.434,0.624c0.638,0,1.225-0.22,1.746-0.654
				c0.52-0.433,0.837-0.965,0.946-1.583c0.106-0.607,0-1.126-0.32-1.543c-0.442-0.582-1.048-0.754-1.863-0.53l-0.757,0.204
				l2.911-3.476L10.802,33.436z M10.737,37.008c0.092,0.083,0.18,0.178,0.26,0.284c0.214,0.279,0.344,0.596,0.392,0.948
				c-0.048-0.353-0.178-0.669-0.392-0.949C10.917,37.186,10.83,37.091,10.737,37.008z M7.076,37.521
				c-0.115,0.166-0.211,0.319-0.288,0.458c-0.028,0.053-0.056,0.105-0.082,0.157c0.026-0.052,0.054-0.104,0.083-0.157
				C6.865,37.841,6.96,37.688,7.076,37.521z M10.76,33.104l0.694,0.488l-0.087,0.103l-2.494,2.979
				c0.086-0.024,0.171-0.043,0.253-0.059L8.893,36.65l2.562-3.058L10.76,33.104z M8.611,40.803c-0.502,0-0.908-0.183-1.21-0.544
				c-0.302-0.36-0.409-0.799-0.319-1.307c0.086-0.491,0.333-0.912,0.733-1.251c0.401-0.341,0.854-0.514,1.347-0.514
				c0.509,0,0.917,0.183,1.217,0.545c0.296,0.362,0.401,0.801,0.312,1.307c-0.085,0.489-0.335,0.91-0.74,1.251
				C9.547,40.63,9.096,40.803,8.611,40.803z M9.162,37.68c-0.373,0-0.717,0.133-1.027,0.396c-0.311,0.264-0.501,0.587-0.568,0.962
				c-0.064,0.361,0.006,0.658,0.212,0.905c0.207,0.247,0.479,0.367,0.832,0.367c0.366,0,0.709-0.134,1.021-0.398
				c0.315-0.265,0.507-0.587,0.572-0.96c0.064-0.362-0.004-0.659-0.207-0.907C9.796,37.799,9.522,37.68,9.162,37.68z M9.986,39.917
				c-0.06,0.064-0.125,0.125-0.194,0.184c-0.067,0.057-0.136,0.108-0.206,0.154c0.07-0.045,0.139-0.097,0.206-0.154
				C9.861,40.042,9.926,39.981,9.986,39.917z M9.162,37.433c-0.433,0-0.832,0.154-1.187,0.456c-0.278,0.237-0.473,0.516-0.581,0.833
				c0.108-0.317,0.303-0.597,0.581-0.833C8.331,37.586,8.729,37.433,9.162,37.433z"/>
		</g>
	</g>
</g>
<g>
	<g>
		<g>
			<path fill="#FFFFFF" d="M12.105,48.139l-5.693,8.169l-0.698-0.413l4.79-6.866H6.817l0.157-0.89H12.105z"/>
			<path fill="#FFFFFF" d="M6.448,56.472l-0.91-0.538l4.732-6.782h-3.6l0.201-1.136h5.47L6.448,56.472z M5.892,55.857l0.485,0.287
				l5.492-7.881H7.077l-0.114,0.643h3.778L5.892,55.857z"/>
		</g>
		<g>
			<path fill="#FFFFFF" d="M6.448,56.472l-0.91-0.538l4.732-6.782h-3.6l0.201-1.136h5.47L6.448,56.472z M5.892,55.857l0.485,0.287
				l5.492-7.881H7.077l-0.114,0.643h3.778L5.892,55.857z"/>
			<path fill="#FFFFFF" d="M6.484,56.636l-1.123-0.664l4.672-6.697h-3.51l0.244-1.382h5.81L6.484,56.636z M5.715,55.895l0.388,0.229
				L5.715,55.895l0.348-0.498L5.715,55.895z M6.069,55.818l0.271,0.161l5.292-7.593H7.181l-0.07,0.396h3.867L6.069,55.818z
				 M6.974,48.139l-0.094,0.534L6.974,48.139h5.132H6.974z"/>
		</g>
	</g>
</g>
<g>
	<g>
		<g>
			<path fill="#FFFFFF" d="M10.502,66.906c0.849,0.484,1.194,1.164,1.041,2.039c-0.127,0.716-0.483,1.312-1.07,1.791
				c-0.586,0.477-1.287,0.716-2.1,0.716c-0.814,0-1.423-0.239-1.832-0.716c-0.407-0.479-0.552-1.053-0.433-1.726
				c0.161-0.911,0.762-1.612,1.803-2.104c-0.636-0.412-0.892-0.972-0.767-1.682c0.098-0.556,0.416-1.046,0.953-1.469
				c0.537-0.424,1.13-0.636,1.778-0.636c0.646,0,1.161,0.207,1.544,0.619c0.383,0.413,0.522,0.916,0.417,1.508
				C11.715,65.934,11.271,66.486,10.502,66.906z M8.546,70.562c0.521,0,0.975-0.155,1.362-0.467c0.388-0.311,0.62-0.684,0.696-1.117
				c0.075-0.434-0.029-0.81-0.315-1.128c-0.287-0.318-0.675-0.477-1.164-0.477c-0.488,0-0.938,0.165-1.35,0.494
				c-0.413,0.329-0.658,0.716-0.736,1.161c-0.078,0.444,0.021,0.812,0.298,1.101C7.615,70.417,8.018,70.562,8.546,70.562z
				 M9.292,66.515c0.369,0,0.716-0.13,1.039-0.389c0.325-0.262,0.518-0.559,0.575-0.896c0.061-0.336-0.02-0.622-0.239-0.857
				c-0.219-0.235-0.533-0.352-0.945-0.352s-0.773,0.117-1.083,0.352c-0.309,0.235-0.493,0.521-0.553,0.857
				c-0.059,0.337,0.033,0.634,0.277,0.896C8.607,66.385,8.916,66.515,9.292,66.515z"/>
			<path fill="#FFFFFF" d="M8.373,71.575c-0.847,0-1.495-0.255-1.926-0.76c-0.43-0.505-0.585-1.119-0.461-1.826
				c0.158-0.892,0.724-1.598,1.686-2.102C7.119,66.46,6.9,65.894,7.022,65.203c0.103-0.585,0.439-1.104,0.999-1.544
				c0.557-0.44,1.18-0.662,1.854-0.662c0.68,0,1.229,0.221,1.635,0.658c0.408,0.44,0.56,0.983,0.447,1.613
				c-0.117,0.666-0.525,1.218-1.214,1.641c0.763,0.503,1.072,1.194,0.921,2.057c-0.131,0.743-0.506,1.371-1.113,1.865
				C9.944,71.324,9.211,71.575,8.373,71.575z M9.875,63.243c-0.617,0-1.189,0.205-1.702,0.608c-0.511,0.402-0.816,0.872-0.908,1.394
				c-0.116,0.663,0.117,1.171,0.712,1.558l0.186,0.12l-0.2,0.095c-1.012,0.479-1.58,1.137-1.734,2.014
				c-0.113,0.64,0.02,1.171,0.406,1.624c0.382,0.446,0.967,0.673,1.738,0.673c0.781,0,1.461-0.232,2.022-0.689
				c0.561-0.456,0.906-1.033,1.026-1.716c0.146-0.826-0.176-1.451-0.979-1.911l-0.192-0.109l0.193-0.106
				c0.74-0.403,1.155-0.918,1.271-1.573c0.099-0.558-0.028-1.017-0.386-1.403C10.973,63.437,10.483,63.243,9.875,63.243z
				 M8.546,70.685c-0.56,0-0.997-0.16-1.298-0.473c-0.305-0.317-0.416-0.724-0.331-1.208C7,68.531,7.263,68.116,7.697,67.769
				c0.434-0.345,0.914-0.52,1.427-0.52c0.522,0,0.945,0.174,1.254,0.517c0.312,0.347,0.429,0.761,0.346,1.233
				c-0.08,0.462-0.33,0.863-0.74,1.192C9.577,70.519,9.093,70.685,8.546,70.685z M9.125,67.496c-0.456,0-0.885,0.157-1.273,0.466
				c-0.387,0.308-0.62,0.673-0.693,1.086c-0.071,0.407,0.016,0.733,0.267,0.994c0.253,0.263,0.63,0.396,1.12,0.396
				c0.489,0,0.921-0.147,1.285-0.439c0.362-0.291,0.582-0.641,0.652-1.042c0.069-0.398-0.024-0.734-0.286-1.025
				C9.932,67.638,9.581,67.496,9.125,67.496z M9.292,66.638c-0.409,0-0.752-0.144-1.019-0.429c-0.271-0.29-0.375-0.626-0.308-1.001
				c0.065-0.367,0.267-0.681,0.599-0.934c0.33-0.25,0.72-0.377,1.157-0.377c0.445,0,0.793,0.132,1.036,0.391
				c0.246,0.264,0.337,0.588,0.271,0.963c-0.063,0.364-0.272,0.691-0.62,0.97C10.063,66.498,9.688,66.638,9.292,66.638z
				 M9.722,64.144c-0.382,0-0.722,0.11-1.008,0.327c-0.286,0.217-0.452,0.473-0.506,0.78c-0.053,0.299,0.028,0.557,0.245,0.79
				c0.221,0.236,0.496,0.351,0.839,0.351c0.338,0,0.663-0.122,0.962-0.363c0.304-0.244,0.478-0.513,0.531-0.82
				c0.054-0.299-0.015-0.545-0.209-0.752C10.381,64.246,10.101,64.144,9.722,64.144z"/>
		</g>
		<g>
			<path fill="#FFFFFF" d="M8.373,71.575c-0.847,0-1.495-0.255-1.926-0.76c-0.43-0.505-0.585-1.119-0.461-1.826
				c0.158-0.892,0.724-1.598,1.686-2.102C7.119,66.46,6.9,65.894,7.022,65.203c0.103-0.585,0.439-1.104,0.999-1.544
				c0.557-0.44,1.18-0.662,1.854-0.662c0.68,0,1.229,0.221,1.635,0.658c0.408,0.44,0.56,0.983,0.447,1.613
				c-0.117,0.666-0.525,1.218-1.214,1.641c0.763,0.503,1.072,1.194,0.921,2.057c-0.131,0.743-0.506,1.371-1.113,1.865
				C9.944,71.324,9.211,71.575,8.373,71.575z M9.875,63.243c-0.617,0-1.189,0.205-1.702,0.608c-0.511,0.402-0.816,0.872-0.908,1.394
				c-0.116,0.663,0.117,1.171,0.712,1.558l0.186,0.12l-0.2,0.095c-1.012,0.479-1.58,1.137-1.734,2.014
				c-0.113,0.64,0.02,1.171,0.406,1.624c0.382,0.446,0.967,0.673,1.738,0.673c0.781,0,1.461-0.232,2.022-0.689
				c0.561-0.456,0.906-1.033,1.026-1.716c0.146-0.826-0.176-1.451-0.979-1.911l-0.192-0.109l0.193-0.106
				c0.74-0.403,1.155-0.918,1.271-1.573c0.099-0.558-0.028-1.017-0.386-1.403C10.973,63.437,10.483,63.243,9.875,63.243z
				 M8.546,70.685c-0.56,0-0.997-0.16-1.298-0.473c-0.305-0.317-0.416-0.724-0.331-1.208C7,68.531,7.263,68.116,7.697,67.769
				c0.434-0.345,0.914-0.52,1.427-0.52c0.522,0,0.945,0.174,1.254,0.517c0.312,0.347,0.429,0.761,0.346,1.233
				c-0.08,0.462-0.33,0.863-0.74,1.192C9.577,70.519,9.093,70.685,8.546,70.685z M9.125,67.496c-0.456,0-0.885,0.157-1.273,0.466
				c-0.387,0.308-0.62,0.673-0.693,1.086c-0.071,0.407,0.016,0.733,0.267,0.994c0.253,0.263,0.63,0.396,1.12,0.396
				c0.489,0,0.921-0.147,1.285-0.439c0.362-0.291,0.582-0.641,0.652-1.042c0.069-0.398-0.024-0.734-0.286-1.025
				C9.932,67.638,9.581,67.496,9.125,67.496z M9.292,66.638c-0.409,0-0.752-0.144-1.019-0.429c-0.271-0.29-0.375-0.626-0.308-1.001
				c0.065-0.367,0.267-0.681,0.599-0.934c0.33-0.25,0.72-0.377,1.157-0.377c0.445,0,0.793,0.132,1.036,0.391
				c0.246,0.264,0.337,0.588,0.271,0.963c-0.063,0.364-0.272,0.691-0.62,0.97C10.063,66.498,9.688,66.638,9.292,66.638z
				 M9.722,64.144c-0.382,0-0.722,0.11-1.008,0.327c-0.286,0.217-0.452,0.473-0.506,0.78c-0.053,0.299,0.028,0.557,0.245,0.79
				c0.221,0.236,0.496,0.351,0.839,0.351c0.338,0,0.663-0.122,0.962-0.363c0.304-0.244,0.478-0.513,0.531-0.82
				c0.054-0.299-0.015-0.545-0.209-0.752C10.381,64.246,10.101,64.144,9.722,64.144z"/>
			<path fill="#FFFFFF" d="M8.373,71.698c-0.884,0-1.563-0.271-2.02-0.803c-0.456-0.535-0.62-1.183-0.488-1.928
				c0.155-0.88,0.689-1.586,1.589-2.102c-0.486-0.442-0.672-1.008-0.553-1.685c0.108-0.615,0.459-1.16,1.044-1.62
				c0.578-0.457,1.228-0.688,1.93-0.688c0.715,0,1.295,0.234,1.725,0.697c0.437,0.47,0.598,1.048,0.479,1.719
				c-0.115,0.649-0.49,1.195-1.115,1.624c0.695,0.522,0.973,1.219,0.821,2.074c-0.136,0.773-0.526,1.425-1.156,1.939
				C9.999,71.438,9.24,71.698,8.373,71.698z M9.875,63.366c-0.589,0-1.136,0.196-1.625,0.582c-0.486,0.383-0.776,0.826-0.864,1.319
				c-0.108,0.616,0.102,1.071,0.659,1.432l0.372,0.241l-0.401,0.189c-0.973,0.46-1.518,1.089-1.666,1.924
				c-0.106,0.602,0.018,1.1,0.378,1.523c0.357,0.417,0.91,0.629,1.644,0.629c0.752,0,1.406-0.223,1.944-0.661
				c0.537-0.437,0.868-0.989,0.983-1.642c0.137-0.779-0.155-1.345-0.92-1.782l-0.383-0.219l0.388-0.212
				c0.705-0.384,1.1-0.871,1.208-1.486c0.092-0.517-0.023-0.941-0.355-1.298C10.906,63.548,10.447,63.366,9.875,63.366z
				 M11.225,69.85c-0.185,0.331-0.435,0.626-0.752,0.885c-0.214,0.173-0.442,0.315-0.687,0.426c0.244-0.111,0.474-0.253,0.687-0.426
				C10.79,70.477,11.041,70.181,11.225,69.85z M7.119,65.419c-0.043,0.554,0.168,1.015,0.628,1.371l0.151,0.118l-0.103,0.053
				c0.038-0.019,0.076-0.037,0.115-0.055C7.337,66.534,7.071,66.035,7.119,65.419z M8.546,70.808c-0.595,0-1.061-0.171-1.388-0.51
				c-0.333-0.346-0.455-0.789-0.363-1.313c0.088-0.504,0.366-0.945,0.825-1.311c0.456-0.363,0.962-0.547,1.504-0.547
				c0.56,0,1.012,0.188,1.346,0.558c0.339,0.376,0.465,0.826,0.376,1.336c-0.086,0.493-0.352,0.919-0.785,1.268
				C9.631,70.632,9.122,70.808,8.546,70.808z M10.398,69.538c-0.118,0.204-0.282,0.39-0.491,0.557
				c-0.134,0.107-0.277,0.197-0.427,0.267c0.15-0.07,0.293-0.16,0.427-0.267C10.116,69.928,10.279,69.741,10.398,69.538z
				 M9.125,67.619c-0.428,0-0.831,0.148-1.196,0.439c-0.363,0.289-0.581,0.63-0.648,1.011c-0.065,0.372,0.01,0.654,0.234,0.888
				c0.229,0.238,0.576,0.358,1.031,0.358c0.461,0,0.867-0.139,1.208-0.413c0.337-0.271,0.542-0.596,0.607-0.966
				c0.063-0.359-0.021-0.661-0.256-0.922C9.865,67.748,9.544,67.619,9.125,67.619z M9.125,67.372c-0.485,0-0.939,0.167-1.35,0.494
				c-0.258,0.205-0.45,0.435-0.578,0.687c0.128-0.252,0.321-0.482,0.578-0.687C8.185,67.538,8.64,67.372,9.125,67.372z
				 M9.292,66.761c-0.445,0-0.818-0.158-1.109-0.467c-0.298-0.32-0.412-0.692-0.339-1.107c0.07-0.398,0.288-0.738,0.646-1.011
				c0.352-0.267,0.766-0.402,1.231-0.402c0.48,0,0.858,0.145,1.126,0.43c0.273,0.294,0.375,0.653,0.302,1.069
				c-0.069,0.394-0.293,0.746-0.665,1.044C10.118,66.612,9.717,66.761,9.292,66.761z M9.722,64.267
				c-0.355,0-0.669,0.102-0.933,0.302c-0.261,0.197-0.411,0.428-0.459,0.704c-0.046,0.261,0.021,0.479,0.214,0.684
				c0.196,0.209,0.441,0.312,0.749,0.312c0.31,0,0.608-0.113,0.885-0.335c0.279-0.224,0.438-0.468,0.488-0.746
				c0.045-0.262-0.01-0.467-0.179-0.646C10.315,64.356,10.065,64.267,9.722,64.267z M10.571,64.282
				c0.034,0.028,0.066,0.058,0.096,0.091c0.083,0.088,0.146,0.185,0.188,0.289c-0.042-0.104-0.105-0.201-0.188-0.29
				C10.638,64.34,10.605,64.31,10.571,64.282z M9.722,64.021c-0.411,0-0.774,0.118-1.083,0.352
				c-0.023,0.018-0.046,0.036-0.068,0.054c0.022-0.019,0.045-0.036,0.068-0.054C8.947,64.139,9.311,64.021,9.722,64.021z"/>
		</g>
	</g>
</g>
<g>
	<g>
		<g>
			<path fill="#FFFFFF" d="M9.063,82.875c-0.219,0.051-0.433,0.077-0.642,0.077c-0.645,0-1.144-0.23-1.5-0.689
				c-0.357-0.459-0.474-1.037-0.352-1.731c0.123-0.694,0.467-1.276,1.035-1.746c0.567-0.471,1.202-0.706,1.903-0.706
				c0.702,0,1.241,0.241,1.621,0.722c0.377,0.48,0.507,1.057,0.388,1.729c-0.064,0.369-0.206,0.74-0.424,1.113
				c-0.217,0.373-0.509,0.775-0.874,1.209l-3.032,3.591l-0.693-0.499L9.063,82.875z M8.763,82.117c0.435,0,0.831-0.155,1.188-0.461
				c0.359-0.308,0.576-0.674,0.65-1.101c0.076-0.427-0.012-0.793-0.261-1.101s-0.591-0.461-1.026-0.461
				c-0.434,0-0.829,0.151-1.188,0.456c-0.357,0.304-0.574,0.672-0.65,1.106c-0.077,0.435,0.01,0.803,0.26,1.107
				C7.987,81.964,8.33,82.117,8.763,82.117z"/>
			<path fill="#FFFFFF" d="M7.206,86.612l-0.893-0.643l2.44-2.914c-0.112,0.013-0.223,0.02-0.332,0.02
				c-0.681,0-1.218-0.248-1.598-0.736c-0.378-0.485-0.504-1.101-0.375-1.829c0.126-0.72,0.489-1.332,1.077-1.819
				c0.587-0.487,1.254-0.734,1.982-0.734c0.738,0,1.315,0.258,1.717,0.769c0.398,0.507,0.537,1.122,0.413,1.827
				c-0.068,0.384-0.216,0.772-0.438,1.154c-0.22,0.376-0.518,0.789-0.887,1.227L7.206,86.612z M6.672,85.923l0.493,0.355
				l2.959-3.503c0.359-0.428,0.649-0.828,0.861-1.192c0.209-0.357,0.347-0.718,0.409-1.073c0.113-0.642-0.006-1.176-0.363-1.632
				c-0.357-0.454-0.856-0.674-1.524-0.674c-0.669,0-1.283,0.228-1.825,0.677c-0.542,0.449-0.875,1.012-0.992,1.672
				c-0.116,0.657-0.006,1.207,0.328,1.634c0.335,0.432,0.794,0.641,1.403,0.641c0.198,0,0.405-0.025,0.614-0.073l0.359-0.083
				L6.672,85.923z M8.763,82.239c-0.469,0-0.847-0.168-1.121-0.5c-0.273-0.332-0.37-0.738-0.287-1.207
				c0.081-0.46,0.313-0.857,0.691-1.178c0.379-0.322,0.806-0.486,1.268-0.486c0.472,0,0.849,0.17,1.122,0.507
				c0.271,0.333,0.369,0.738,0.287,1.2c-0.08,0.454-0.312,0.848-0.692,1.173C9.652,82.074,9.225,82.239,8.763,82.239z M9.314,79.116
				c-0.401,0-0.774,0.143-1.107,0.426c-0.333,0.283-0.538,0.631-0.609,1.034c-0.071,0.4,0.005,0.73,0.234,1.007
				c0.228,0.276,0.533,0.411,0.931,0.411c0.402,0,0.775-0.145,1.107-0.432c0.335-0.287,0.54-0.632,0.609-1.028
				c0.069-0.395-0.007-0.722-0.235-1.002C10.017,79.251,9.713,79.116,9.314,79.116z"/>
		</g>
		<g>
			<path fill="#FFFFFF" d="M7.206,86.612l-0.893-0.643l2.44-2.914c-0.112,0.013-0.223,0.02-0.332,0.02
				c-0.681,0-1.218-0.248-1.598-0.736c-0.378-0.485-0.504-1.101-0.375-1.829c0.126-0.72,0.489-1.332,1.077-1.819
				c0.587-0.487,1.254-0.734,1.982-0.734c0.738,0,1.315,0.258,1.717,0.769c0.398,0.507,0.537,1.122,0.413,1.827
				c-0.068,0.384-0.216,0.772-0.438,1.154c-0.22,0.376-0.518,0.789-0.887,1.227L7.206,86.612z M6.672,85.923l0.493,0.355
				l2.959-3.503c0.359-0.428,0.649-0.828,0.861-1.192c0.209-0.357,0.347-0.718,0.409-1.073c0.113-0.642-0.006-1.176-0.363-1.632
				c-0.357-0.454-0.856-0.674-1.524-0.674c-0.669,0-1.283,0.228-1.825,0.677c-0.542,0.449-0.875,1.012-0.992,1.672
				c-0.116,0.657-0.006,1.207,0.328,1.634c0.335,0.432,0.794,0.641,1.403,0.641c0.198,0,0.405-0.025,0.614-0.073l0.359-0.083
				L6.672,85.923z M8.763,82.239c-0.469,0-0.847-0.168-1.121-0.5c-0.273-0.332-0.37-0.738-0.287-1.207
				c0.081-0.46,0.313-0.857,0.691-1.178c0.379-0.322,0.806-0.486,1.268-0.486c0.472,0,0.849,0.17,1.122,0.507
				c0.271,0.333,0.369,0.738,0.287,1.2c-0.08,0.454-0.312,0.848-0.692,1.173C9.652,82.074,9.225,82.239,8.763,82.239z M9.314,79.116
				c-0.401,0-0.774,0.143-1.107,0.426c-0.333,0.283-0.538,0.631-0.609,1.034c-0.071,0.4,0.005,0.73,0.234,1.007
				c0.228,0.276,0.533,0.411,0.931,0.411c0.402,0,0.775-0.145,1.107-0.432c0.335-0.287,0.54-0.632,0.609-1.028
				c0.069-0.395-0.007-0.722-0.235-1.002C10.017,79.251,9.713,79.116,9.314,79.116z"/>
			<path fill="#FFFFFF" d="M7.227,86.778l-1.094-0.787l2.339-2.793c-0.744,0.014-1.333-0.251-1.746-0.784
				c-0.4-0.514-0.535-1.161-0.4-1.925c0.132-0.75,0.509-1.386,1.121-1.893c0.609-0.505,1.303-0.762,2.06-0.762
				c0.778,0,1.388,0.274,1.814,0.815c0.421,0.536,0.568,1.183,0.438,1.925c-0.071,0.398-0.224,0.8-0.453,1.195
				c-0.222,0.38-0.524,0.799-0.899,1.244L7.227,86.778z M7.186,86.445l3.032-3.591c0.366-0.435,0.66-0.841,0.874-1.209
				c0.067-0.114,0.128-0.229,0.18-0.344c-0.053,0.115-0.113,0.23-0.181,0.344c-0.215,0.37-0.509,0.777-0.873,1.209L7.186,86.445z
				 M6.852,85.9l0.292,0.211l2.884-3.417c0.355-0.42,0.643-0.816,0.851-1.174c0.202-0.344,0.335-0.691,0.394-1.031
				c0.107-0.606-0.003-1.108-0.34-1.535c-0.332-0.422-0.797-0.627-1.425-0.627c-0.64,0-1.227,0.218-1.747,0.648
				c-0.519,0.43-0.837,0.968-0.949,1.599c-0.11,0.621-0.008,1.138,0.303,1.538c0.31,0.399,0.737,0.593,1.306,0.593
				c0.188,0,0.386-0.023,0.587-0.069l0.717-0.166L6.852,85.9z M9.045,82.897l-0.776,0.927l0.794-0.949
				c-0.159,0.037-0.316,0.061-0.471,0.071c0.049-0.003,0.097-0.008,0.146-0.013L9.045,82.897z M7.183,79.205
				c-0.274,0.329-0.463,0.701-0.567,1.112C6.72,79.905,6.909,79.534,7.183,79.205z M8.763,82.363c-0.508,0-0.917-0.184-1.216-0.545
				c-0.298-0.361-0.403-0.8-0.313-1.307c0.085-0.488,0.333-0.91,0.733-1.25c0.402-0.341,0.855-0.514,1.347-0.514
				c0.511,0,0.92,0.186,1.217,0.552c0.295,0.363,0.4,0.8,0.312,1.299c-0.085,0.483-0.331,0.902-0.732,1.245
				C9.71,82.188,9.256,82.363,8.763,82.363z M9.314,79.239c-0.372,0-0.718,0.134-1.027,0.397c-0.311,0.264-0.501,0.586-0.567,0.96
				c-0.064,0.363,0.004,0.66,0.208,0.907C8.13,81.75,8.404,81.87,8.763,81.87c0.372,0,0.718-0.135,1.027-0.401
				c0.314-0.268,0.504-0.59,0.57-0.957c0.062-0.357-0.006-0.652-0.211-0.903C9.943,79.356,9.678,79.239,9.314,79.239z"/>
		</g>
	</g>
</g>
<g>
	<g>
		<g>
			<path fill="#FFFFFF" d="M5.596,101.297H4.673l1.239-7.03H4.622l0.725-0.911h1.649L5.596,101.297z"/>
			<path fill="#FFFFFF" d="M5.699,101.421H4.526l1.24-7.03h-1.4l0.922-1.158h1.855L5.699,101.421z M4.819,101.174h0.672l1.357-7.694
				H5.406l-0.529,0.664h1.182L4.819,101.174z"/>
		</g>
		<g>
			<path fill="#FFFFFF" d="M5.699,101.421H4.526l1.24-7.03h-1.4l0.922-1.158h1.855L5.699,101.421z M4.819,101.174h0.672l1.357-7.694
				H5.406l-0.529,0.664h1.182L4.819,101.174z"/>
			<path fill="#FFFFFF" d="M5.802,101.543H4.379l1.24-7.03H4.11l1.118-1.404h2.061L5.802,101.543z M5.596,101.297l0.942-5.347
				L5.596,101.297z M4.967,101.051h0.421l1.314-7.448H5.465l-0.332,0.418h1.073L4.967,101.051z M5.347,93.356h1.649H5.347z"/>
		</g>
	</g>
	<g>
		<g>
			<path fill="#FFFFFF" d="M11.402,93.161c0.854,0,1.466,0.36,1.838,1.079c0.372,0.72,0.441,1.751,0.204,3.092
				c-0.237,1.342-0.671,2.37-1.304,3.086s-1.374,1.075-2.224,1.075c-0.849,0-1.446-0.353-1.787-1.059
				c-0.342-0.705-0.393-1.742-0.15-3.112c0.242-1.371,0.657-2.406,1.247-3.108C9.816,93.512,10.542,93.161,11.402,93.161z
				 M10.106,100.635c0.592,0,1.104-0.287,1.535-0.862c0.429-0.575,0.737-1.39,0.925-2.447c0.186-1.056,0.159-1.866-0.081-2.43
				c-0.24-0.563-0.648-0.846-1.224-0.846c-0.574,0-1.071,0.283-1.489,0.846c-0.417,0.564-0.721,1.382-0.91,2.452
				C8.477,99.54,8.891,100.635,10.106,100.635z"/>
			<path fill="#FFFFFF" d="M9.917,101.616c-0.896,0-1.536-0.379-1.898-1.128c-0.352-0.726-0.405-1.798-0.161-3.188
				c0.244-1.386,0.673-2.452,1.274-3.167c0.611-0.728,1.375-1.096,2.271-1.096c0.898,0,1.554,0.386,1.947,1.146
				c0.383,0.742,0.457,1.808,0.216,3.17c-0.239,1.358-0.688,2.417-1.332,3.146C11.578,101.241,10.799,101.616,9.917,101.616z
				 M11.402,93.284c-0.819,0-1.52,0.339-2.082,1.009C8.748,94.974,8.337,96,8.1,97.343c-0.236,1.338-0.189,2.36,0.14,3.038
				c0.322,0.666,0.87,0.989,1.676,0.989c0.808,0,1.526-0.348,2.131-1.033c0.614-0.695,1.043-1.713,1.275-3.026
				c0.23-1.307,0.167-2.321-0.192-3.014C12.779,93.615,12.214,93.284,11.402,93.284z M10.106,100.758
				c-0.465,0-0.83-0.152-1.083-0.454c-0.449-0.535-0.542-1.509-0.282-2.978c0.191-1.084,0.505-1.926,0.932-2.503
				c0.44-0.595,0.975-0.896,1.588-0.896c0.626,0,1.076,0.309,1.337,0.921c0.251,0.59,0.281,1.408,0.089,2.5
				c-0.19,1.071-0.508,1.911-0.947,2.499C11.287,100.452,10.738,100.758,10.106,100.758z M11.262,94.174
				c-0.538,0-0.993,0.26-1.39,0.795c-0.404,0.546-0.703,1.354-0.888,2.4c-0.242,1.373-0.166,2.308,0.228,2.776
				c0.208,0.246,0.499,0.366,0.894,0.366c0.558,0,1.027-0.266,1.437-0.812c0.415-0.557,0.719-1.363,0.901-2.394
				c0.181-1.029,0.156-1.823-0.072-2.361C12.149,94.426,11.787,94.174,11.262,94.174z"/>
		</g>
		<g>
			<path fill="#FFFFFF" d="M9.917,101.616c-0.896,0-1.536-0.379-1.898-1.128c-0.352-0.726-0.405-1.798-0.161-3.188
				c0.244-1.386,0.673-2.452,1.274-3.167c0.611-0.728,1.375-1.096,2.271-1.096c0.898,0,1.554,0.386,1.947,1.146
				c0.383,0.742,0.457,1.808,0.216,3.17c-0.239,1.358-0.688,2.417-1.332,3.146C11.578,101.241,10.799,101.616,9.917,101.616z
				 M11.402,93.284c-0.819,0-1.52,0.339-2.082,1.009C8.748,94.974,8.337,96,8.1,97.343c-0.236,1.338-0.189,2.36,0.14,3.038
				c0.322,0.666,0.87,0.989,1.676,0.989c0.808,0,1.526-0.348,2.131-1.033c0.614-0.695,1.043-1.713,1.275-3.026
				c0.23-1.307,0.167-2.321-0.192-3.014C12.779,93.615,12.214,93.284,11.402,93.284z M10.106,100.758
				c-0.465,0-0.83-0.152-1.083-0.454c-0.449-0.535-0.542-1.509-0.282-2.978c0.191-1.084,0.505-1.926,0.932-2.503
				c0.44-0.595,0.975-0.896,1.588-0.896c0.626,0,1.076,0.309,1.337,0.921c0.251,0.59,0.281,1.408,0.089,2.5
				c-0.19,1.071-0.508,1.911-0.947,2.499C11.287,100.452,10.738,100.758,10.106,100.758z M11.262,94.174
				c-0.538,0-0.993,0.26-1.39,0.795c-0.404,0.546-0.703,1.354-0.888,2.4c-0.242,1.373-0.166,2.308,0.228,2.776
				c0.208,0.246,0.499,0.366,0.894,0.366c0.558,0,1.027-0.266,1.437-0.812c0.415-0.557,0.719-1.363,0.901-2.394
				c0.181-1.029,0.156-1.823-0.072-2.361C12.149,94.426,11.787,94.174,11.262,94.174z"/>
			<path fill="#FFFFFF" d="M9.917,101.739c-0.948,0-1.624-0.403-2.009-1.197c-0.363-0.749-0.421-1.847-0.171-3.263
				c0.248-1.408,0.686-2.492,1.301-3.225c0.636-0.756,1.432-1.14,2.365-1.14c0.948,0,1.641,0.408,2.058,1.211
				c0.396,0.768,0.473,1.86,0.228,3.25c-0.244,1.379-0.703,2.458-1.362,3.206C11.646,101.35,10.835,101.739,9.917,101.739z
				 M12.658,99.683c-0.155,0.274-0.327,0.519-0.518,0.735c-0.513,0.579-1.103,0.927-1.759,1.037c0.656-0.11,1.246-0.458,1.759-1.037
				C12.331,100.203,12.503,99.958,12.658,99.683z M11.402,93.407c-0.781,0-1.449,0.325-1.987,0.965
				c-0.559,0.664-0.96,1.67-1.193,2.992c-0.231,1.312-0.188,2.309,0.129,2.962c0.299,0.619,0.812,0.92,1.565,0.92
				c0.771,0,1.457-0.334,2.039-0.992c0.6-0.677,1.019-1.675,1.246-2.966c0.227-1.28,0.166-2.268-0.181-2.935
				C12.692,93.717,12.163,93.407,11.402,93.407z M13.423,97.448c-0.115,0.615-0.274,1.166-0.479,1.648
				C13.148,98.614,13.308,98.063,13.423,97.448z M8.434,95.616c-0.099,0.257-0.188,0.535-0.265,0.832
				C8.247,96.151,8.335,95.873,8.434,95.616z M13.146,94.073c0.031,0.053,0.063,0.109,0.094,0.167
				c0.101,0.194,0.179,0.412,0.235,0.653c-0.057-0.241-0.134-0.459-0.235-0.653C13.21,94.182,13.178,94.126,13.146,94.073z
				 M11.402,93.161c-0.856,0-1.589,0.354-2.176,1.053c-0.087,0.104-0.171,0.216-0.252,0.336c0.081-0.12,0.165-0.232,0.252-0.336
				C9.814,93.515,10.546,93.161,11.402,93.161z M10.106,100.882c-0.504,0-0.9-0.168-1.177-0.498
				c-0.474-0.565-0.575-1.572-0.309-3.078c0.195-1.105,0.516-1.965,0.954-2.556c0.465-0.628,1.032-0.946,1.687-0.946
				c0.68,0,1.168,0.335,1.45,0.995c0.262,0.615,0.293,1.456,0.097,2.571c-0.194,1.09-0.52,1.949-0.969,2.551
				C11.361,100.559,10.778,100.882,10.106,100.882z M11.262,94.297c-0.495,0-0.918,0.244-1.29,0.746
				c-0.393,0.531-0.684,1.321-0.866,2.349c-0.235,1.336-0.167,2.236,0.202,2.675c0.182,0.217,0.444,0.322,0.799,0.322
				c0.515,0,0.952-0.25,1.339-0.763c0.402-0.541,0.698-1.329,0.878-2.342c0.176-1.004,0.155-1.774-0.065-2.291
				C12.056,94.518,11.738,94.297,11.262,94.297z M8.828,97.554c-0.2,1.267-0.12,2.125,0.247,2.616
				C8.714,99.684,8.632,98.805,8.828,97.554z M12.386,98.136c-0.15,0.551-0.346,1.019-0.581,1.398
				C12.04,99.155,12.235,98.687,12.386,98.136z M11.262,94.05c0.572,0,0.984,0.285,1.224,0.846c0.228,0.537,0.263,1.309,0.104,2.295
				c0.162-0.998,0.127-1.75-0.104-2.295C12.243,94.327,11.842,94.05,11.262,94.05z M9.816,94.839
				c-0.014,0.019-0.029,0.038-0.043,0.058c-0.188,0.252-0.352,0.56-0.495,0.917c0.143-0.358,0.308-0.665,0.495-0.917
				C9.788,94.876,9.802,94.857,9.816,94.839z"/>
		</g>
	</g>
</g>
<g>
	<g>
		<g>
			<path fill="#FFFFFF" d="M6.353,116.317H5.43l1.239-7.029H5.378l0.725-0.911h1.649L6.353,116.317z"/>
			<path fill="#FFFFFF" d="M6.456,116.44H5.283l1.24-7.029h-1.4l0.922-1.157h1.855L6.456,116.44z M5.576,116.194h0.672l1.357-7.693
				H6.163l-0.529,0.664h1.182L5.576,116.194z"/>
		</g>
		<g>
			<path fill="#FFFFFF" d="M6.456,116.44H5.283l1.24-7.029h-1.4l0.922-1.157h1.855L6.456,116.44z M5.576,116.194h0.672l1.357-7.693
				H6.163l-0.529,0.664h1.182L5.576,116.194z"/>
			<path fill="#FFFFFF" d="M6.559,116.564H5.136l1.24-7.03H4.867l1.118-1.403h2.061L6.559,116.564z M6.353,116.317l0.936-5.308
				L6.353,116.317z M5.724,116.07h0.421l1.314-7.447H6.222l-0.332,0.419h1.073L5.724,116.07z M6.104,108.377h1.649H6.104z"/>
		</g>
	</g>
	<g>
		<g>
			<path fill="#FFFFFF" d="M11.375,116.317h-0.922l1.239-7.029h-1.29l0.725-0.911h1.649L11.375,116.317z"/>
			<path fill="#FFFFFF" d="M11.479,116.44h-1.173l0.026-0.145l1.213-6.885h-1.398l0.921-1.157h1.855l-0.025,0.144L11.479,116.44z
				 M10.601,116.194h0.672l1.356-7.693h-1.442l-0.529,0.664h1.183l-0.026,0.144L10.601,116.194z"/>
		</g>
		<g>
			<path fill="#FFFFFF" d="M11.479,116.44h-1.173l0.026-0.145l1.213-6.885h-1.398l0.921-1.157h1.855l-0.025,0.144L11.479,116.44z
				 M10.601,116.194h0.672l1.356-7.693h-1.442l-0.529,0.664h1.183l-0.026,0.144L10.601,116.194z"/>
			<path fill="#FFFFFF" d="M11.581,116.564h-1.423l0.053-0.291l1.187-6.739H9.892l1.115-1.403h2.063l-0.052,0.289L11.581,116.564z
				 M10.453,116.317l0.026-0.145l1.213-6.885l-0.025,0.145L10.453,116.317z M10.748,116.07h0.422l1.311-7.447h-1.234l-0.333,0.419
				h1.074l-0.053,0.289L10.748,116.07z M11.127,108.377h1.649l-0.442,2.505l0.442-2.505H11.127l-0.259,0.326L11.127,108.377z"/>
		</g>
	</g>
</g>
<g>
	<g>
		<g>
			<path fill="#FFFFFF" d="M5.564,131.437H4.642l1.239-7.028H4.59l0.725-0.911h1.649L5.564,131.437z"/>
			<path fill="#FFFFFF" d="M5.668,131.561H4.495l1.24-7.029h-1.4l0.922-1.158h1.855L5.668,131.561z M4.788,131.313H5.46l1.357-7.693
				H5.375l-0.529,0.664h1.182L4.788,131.313z"/>
		</g>
		<g>
			<path fill="#FFFFFF" d="M5.668,131.561H4.495l1.24-7.029h-1.4l0.922-1.158h1.855L5.668,131.561z M4.788,131.313H5.46l1.357-7.693
				H5.375l-0.529,0.664h1.182L4.788,131.313z"/>
			<path fill="#FFFFFF" d="M5.771,131.684H4.348l1.24-7.029H4.079l1.118-1.404h2.061L5.771,131.684z M5.564,131.437l0.936-5.309
				L5.564,131.437z M4.936,131.19h0.421l1.314-7.447H5.434l-0.332,0.418h1.073L4.936,131.19z M5.315,123.497h1.649H5.315z"/>
		</g>
	</g>
	<g>
		<g>
			<path fill="#FFFFFF" d="M12.671,131.437H7.127l3.68-3.34c0.618-0.549,1.063-0.983,1.336-1.302
				c0.272-0.319,0.444-0.68,0.517-1.084c0.072-0.405-0.023-0.761-0.284-1.063c-0.261-0.306-0.624-0.456-1.091-0.456
				s-0.885,0.164-1.255,0.492c-0.368,0.329-0.627,0.798-0.779,1.406H8.352c0.186-0.854,0.577-1.532,1.172-2.034
				c0.595-0.504,1.251-0.754,1.972-0.754c0.72,0,1.274,0.232,1.666,0.698c0.392,0.467,0.528,1.036,0.409,1.711
				c-0.086,0.491-0.297,0.949-0.634,1.377c-0.336,0.426-0.816,0.921-1.444,1.485l-2.168,1.963h3.504L12.671,131.437z"/>
			<path fill="#FFFFFF" d="M12.773,131.561H6.808l3.918-3.556c0.611-0.545,1.058-0.979,1.324-1.291
				c0.258-0.3,0.421-0.645,0.489-1.024c0.065-0.37-0.018-0.687-0.257-0.961c-0.238-0.28-0.564-0.414-0.997-0.414
				s-0.828,0.154-1.173,0.462c-0.347,0.311-0.597,0.763-0.741,1.343l-0.023,0.094H8.199l0.033-0.149
				c0.19-0.877,0.599-1.584,1.212-2.103c0.615-0.52,1.307-0.783,2.052-0.783c0.753,0,1.346,0.25,1.761,0.743
				c0.415,0.495,0.561,1.104,0.436,1.811c-0.089,0.509-0.311,0.991-0.658,1.433c-0.34,0.431-0.829,0.937-1.458,1.5l-1.932,1.749
				h3.332L12.773,131.561z M7.446,131.313h5.121l0.114-0.653H9.005l2.406-2.179c0.618-0.557,1.099-1.05,1.429-1.47
				c0.322-0.409,0.527-0.854,0.61-1.322c0.113-0.642-0.012-1.168-0.382-1.61c-0.371-0.439-0.885-0.655-1.572-0.655
				c-0.687,0-1.322,0.244-1.892,0.726c-0.537,0.453-0.906,1.063-1.097,1.816h0.648c0.16-0.586,0.427-1.047,0.793-1.373
				c0.392-0.349,0.84-0.524,1.336-0.524c0.502,0,0.901,0.168,1.184,0.499c0.287,0.33,0.392,0.723,0.312,1.164
				c-0.075,0.425-0.258,0.81-0.545,1.143c-0.272,0.32-0.727,0.763-1.347,1.314L7.446,131.313z"/>
		</g>
		<g>
			<path fill="#FFFFFF" d="M12.773,131.561H6.808l3.918-3.556c0.611-0.545,1.058-0.979,1.324-1.291
				c0.258-0.3,0.421-0.645,0.489-1.024c0.065-0.37-0.018-0.687-0.257-0.961c-0.238-0.28-0.564-0.414-0.997-0.414
				s-0.828,0.154-1.173,0.462c-0.347,0.311-0.597,0.763-0.741,1.343l-0.023,0.094H8.199l0.033-0.149
				c0.19-0.877,0.599-1.584,1.212-2.103c0.615-0.52,1.307-0.783,2.052-0.783c0.753,0,1.346,0.25,1.761,0.743
				c0.415,0.495,0.561,1.104,0.436,1.811c-0.089,0.509-0.311,0.991-0.658,1.433c-0.34,0.431-0.829,0.937-1.458,1.5l-1.932,1.749
				h3.332L12.773,131.561z M7.446,131.313h5.121l0.114-0.653H9.005l2.406-2.179c0.618-0.557,1.099-1.05,1.429-1.47
				c0.322-0.409,0.527-0.854,0.61-1.322c0.113-0.642-0.012-1.168-0.382-1.61c-0.371-0.439-0.885-0.655-1.572-0.655
				c-0.687,0-1.322,0.244-1.892,0.726c-0.537,0.453-0.906,1.063-1.097,1.816h0.648c0.16-0.586,0.427-1.047,0.793-1.373
				c0.392-0.349,0.84-0.524,1.336-0.524c0.502,0,0.901,0.168,1.184,0.499c0.287,0.33,0.392,0.723,0.312,1.164
				c-0.075,0.425-0.258,0.81-0.545,1.143c-0.272,0.32-0.727,0.763-1.347,1.314L7.446,131.313z"/>
			<path fill="#FFFFFF" d="M12.877,131.684H6.489l4.154-3.77c0.612-0.546,1.054-0.976,1.314-1.279
				c0.242-0.284,0.396-0.608,0.46-0.966c0.06-0.334-0.016-0.614-0.228-0.859c-0.213-0.251-0.51-0.372-0.904-0.372
				c-0.403,0-0.77,0.146-1.09,0.432c-0.33,0.293-0.566,0.723-0.705,1.279l-0.046,0.188H8.046l0.065-0.299
				c0.197-0.902,0.618-1.633,1.253-2.17c0.64-0.539,1.356-0.812,2.132-0.812c0.791,0,1.415,0.265,1.855,0.788
				c0.439,0.522,0.594,1.165,0.462,1.91c-0.093,0.529-0.321,1.03-0.683,1.487c-0.344,0.438-0.84,0.947-1.471,1.516l-1.695,1.534
				h3.16L12.877,131.684z M7.127,131.437l3.679-3.339c0.365-0.325,0.671-0.61,0.915-0.854c-0.243,0.243-0.55,0.529-0.915,0.854
				L7.127,131.437z M7.766,131.19h4.697l0.073-0.407H8.686l2.643-2.394c0.613-0.551,1.089-1.039,1.415-1.454
				c0.31-0.393,0.507-0.819,0.585-1.267c0.107-0.604-0.01-1.098-0.354-1.511c-0.347-0.41-0.829-0.611-1.478-0.611
				c-0.656,0-1.267,0.234-1.812,0.697c-0.479,0.404-0.82,0.941-1.015,1.599h0.393c0.169-0.565,0.44-1.017,0.804-1.343
				c0.416-0.369,0.892-0.556,1.418-0.556c0.54,0,0.97,0.183,1.278,0.543c0.311,0.359,0.425,0.785,0.34,1.267
				c-0.08,0.446-0.272,0.851-0.572,1.2c-0.276,0.322-0.732,0.77-1.359,1.327L7.766,131.19z M9.325,130.536h3.503l-0.084,0.484
				l0.085-0.484H9.325z M13.508,125.987c-0.108,0.387-0.3,0.757-0.57,1.101c-0.335,0.425-0.82,0.925-1.444,1.485l-1.561,1.413
				l1.561-1.413c0.623-0.56,1.108-1.059,1.444-1.485C13.209,126.744,13.4,126.374,13.508,125.987z M10.197,123.608
				c-0.233,0.115-0.458,0.265-0.673,0.447c-0.317,0.268-0.579,0.59-0.78,0.96c0.202-0.371,0.463-0.692,0.78-0.96
				C9.74,123.873,9.964,123.724,10.197,123.608z"/>
		</g>
	</g>
</g>
<g>
	<g>
		<g>
			<path fill="#FFFFFF" d="M5.713,146.359H4.791l1.239-7.029H4.739l0.725-0.911h1.649L5.713,146.359z"/>
			<path fill="#FFFFFF" d="M5.817,146.482H4.644l1.24-7.029h-1.4l0.922-1.157H7.26L5.817,146.482z M4.937,146.235h0.672l1.357-7.693
				H5.524l-0.529,0.665h1.182L4.937,146.235z"/>
		</g>
		<g>
			<path fill="#FFFFFF" d="M5.817,146.482H4.644l1.24-7.029h-1.4l0.922-1.157H7.26L5.817,146.482z M4.937,146.235h0.672l1.357-7.693
				H5.524l-0.529,0.665h1.182L4.937,146.235z"/>
			<path fill="#FFFFFF" d="M5.92,146.605H4.497l1.24-7.028H4.228l1.118-1.405h2.061L5.92,146.605z M5.713,146.359l0.936-5.309
				L5.713,146.359z M5.084,146.112h0.421l1.314-7.446H5.583l-0.332,0.417h1.073L5.084,146.112z M5.464,138.419h1.649H5.464z"/>
		</g>
	</g>
	<g>
		<g>
			<path fill="#FFFFFF" d="M12.239,141.89c0.39,0.211,0.671,0.5,0.84,0.867c0.171,0.37,0.216,0.771,0.141,1.206
				c-0.125,0.707-0.492,1.318-1.098,1.826c-0.607,0.511-1.306,0.767-2.093,0.767c-0.709,0-1.253-0.206-1.633-0.614
				c-0.38-0.407-0.579-1.013-0.596-1.816h0.922c0.047,0.513,0.184,0.895,0.412,1.145c0.227,0.249,0.591,0.375,1.094,0.375
				c0.502,0,0.951-0.158,1.347-0.474c0.396-0.313,0.635-0.71,0.72-1.187c0.084-0.478-0.042-0.857-0.379-1.14
				c-0.338-0.282-0.882-0.431-1.631-0.445l0.153-0.867c0.542,0,1-0.115,1.374-0.347c0.372-0.232,0.589-0.519,0.65-0.862
				c0.061-0.343-0.018-0.631-0.234-0.857c-0.216-0.227-0.507-0.341-0.872-0.341s-0.68,0.103-0.944,0.309
				c-0.265,0.205-0.513,0.519-0.746,0.937H8.722c0.281-0.692,0.666-1.225,1.149-1.593c0.484-0.369,1.035-0.554,1.649-0.554
				c0.615,0,1.111,0.202,1.493,0.607c0.38,0.406,0.52,0.897,0.418,1.475C13.312,140.972,12.916,141.499,12.239,141.89z"/>
			<path fill="#FFFFFF" d="M10.029,146.679c-0.739,0-1.319-0.22-1.724-0.653c-0.399-0.428-0.611-1.066-0.629-1.897l-0.003-0.126
				h1.161l0.01,0.111c0.044,0.484,0.173,0.846,0.38,1.073c0.203,0.222,0.54,0.334,1.003,0.334c0.473,0,0.899-0.15,1.269-0.445
				c0.37-0.294,0.598-0.668,0.677-1.111c0.076-0.437-0.033-0.771-0.338-1.024c-0.313-0.262-0.836-0.402-1.553-0.416l-0.145-0.003
				l0.197-1.111h0.103c0.516,0,0.956-0.111,1.309-0.328c0.345-0.215,0.539-0.47,0.595-0.779c0.053-0.307-0.012-0.552-0.202-0.751
				c-0.193-0.203-0.449-0.303-0.783-0.303c-0.336,0-0.629,0.096-0.868,0.282c-0.25,0.194-0.49,0.497-0.714,0.9l-0.035,0.063H8.539
				l0.069-0.169c0.288-0.71,0.688-1.264,1.188-1.646c0.505-0.384,1.086-0.578,1.724-0.578c0.646,0,1.18,0.218,1.582,0.646
				c0.407,0.435,0.559,0.966,0.45,1.581c-0.112,0.64-0.474,1.164-1.074,1.561c0.321,0.212,0.562,0.486,0.713,0.818
				c0.181,0.39,0.23,0.819,0.15,1.277c-0.13,0.735-0.513,1.374-1.141,1.899C11.574,146.411,10.843,146.679,10.029,146.679z
				 M7.928,144.248c0.034,0.707,0.221,1.248,0.558,1.609c0.356,0.381,0.875,0.575,1.543,0.575c0.754,0,1.431-0.248,2.013-0.738
				c0.581-0.487,0.937-1.077,1.056-1.753c0.072-0.414,0.03-0.784-0.131-1.132c-0.156-0.341-0.421-0.615-0.786-0.811l-0.194-0.105
				l0.191-0.11c0.65-0.374,1.02-0.865,1.131-1.499c0.096-0.542-0.03-0.99-0.386-1.369c-0.36-0.382-0.819-0.568-1.403-0.568
				s-1.113,0.179-1.575,0.529c-0.424,0.323-0.772,0.784-1.036,1.372h0.685c0.231-0.402,0.48-0.708,0.743-0.912
				c0.283-0.222,0.626-0.334,1.02-0.334c0.399,0,0.723,0.128,0.962,0.379c0.243,0.256,0.333,0.581,0.266,0.964
				c-0.066,0.377-0.305,0.695-0.707,0.945c-0.368,0.228-0.816,0.351-1.335,0.364l-0.11,0.627c0.701,0.031,1.227,0.189,1.563,0.469
				c0.371,0.312,0.513,0.733,0.421,1.256c-0.089,0.506-0.348,0.93-0.765,1.262c-0.414,0.331-0.894,0.499-1.423,0.499
				c-0.536,0-0.935-0.139-1.186-0.415c-0.227-0.248-0.372-0.618-0.431-1.104H7.928z"/>
		</g>
		<g>
			<path fill="#FFFFFF" d="M10.029,146.679c-0.739,0-1.319-0.22-1.724-0.653c-0.399-0.428-0.611-1.066-0.629-1.897l-0.003-0.126
				h1.161l0.01,0.111c0.044,0.484,0.173,0.846,0.38,1.073c0.203,0.222,0.54,0.334,1.003,0.334c0.473,0,0.899-0.15,1.269-0.445
				c0.37-0.294,0.598-0.668,0.677-1.111c0.076-0.437-0.033-0.771-0.338-1.024c-0.313-0.262-0.836-0.402-1.553-0.416l-0.145-0.003
				l0.197-1.111h0.103c0.516,0,0.956-0.111,1.309-0.328c0.345-0.215,0.539-0.47,0.595-0.779c0.053-0.307-0.012-0.552-0.202-0.751
				c-0.193-0.203-0.449-0.303-0.783-0.303c-0.336,0-0.629,0.096-0.868,0.282c-0.25,0.194-0.49,0.497-0.714,0.9l-0.035,0.063H8.539
				l0.069-0.169c0.288-0.71,0.688-1.264,1.188-1.646c0.505-0.384,1.086-0.578,1.724-0.578c0.646,0,1.18,0.218,1.582,0.646
				c0.407,0.435,0.559,0.966,0.45,1.581c-0.112,0.64-0.474,1.164-1.074,1.561c0.321,0.212,0.562,0.486,0.713,0.818
				c0.181,0.39,0.23,0.819,0.15,1.277c-0.13,0.735-0.513,1.374-1.141,1.899C11.574,146.411,10.843,146.679,10.029,146.679z
				 M7.928,144.248c0.034,0.707,0.221,1.248,0.558,1.609c0.356,0.381,0.875,0.575,1.543,0.575c0.754,0,1.431-0.248,2.013-0.738
				c0.581-0.487,0.937-1.077,1.056-1.753c0.072-0.414,0.03-0.784-0.131-1.132c-0.156-0.341-0.421-0.615-0.786-0.811l-0.194-0.105
				l0.191-0.11c0.65-0.374,1.02-0.865,1.131-1.499c0.096-0.542-0.03-0.99-0.386-1.369c-0.36-0.382-0.819-0.568-1.403-0.568
				s-1.113,0.179-1.575,0.529c-0.424,0.323-0.772,0.784-1.036,1.372h0.685c0.231-0.402,0.48-0.708,0.743-0.912
				c0.283-0.222,0.626-0.334,1.02-0.334c0.399,0,0.723,0.128,0.962,0.379c0.243,0.256,0.333,0.581,0.266,0.964
				c-0.066,0.377-0.305,0.695-0.707,0.945c-0.368,0.228-0.816,0.351-1.335,0.364l-0.11,0.627c0.701,0.031,1.227,0.189,1.563,0.469
				c0.371,0.312,0.513,0.733,0.421,1.256c-0.089,0.506-0.348,0.93-0.765,1.262c-0.414,0.331-0.894,0.499-1.423,0.499
				c-0.536,0-0.935-0.139-1.186-0.415c-0.227-0.248-0.372-0.618-0.431-1.104H7.928z"/>
			<path fill="#FFFFFF" d="M10.029,146.802c-0.775,0-1.386-0.232-1.813-0.693c-0.421-0.449-0.644-1.116-0.662-1.978l-0.006-0.253
				h1.399l0.021,0.224c0.042,0.457,0.159,0.794,0.348,1.002c0.177,0.194,0.485,0.294,0.912,0.294c0.444,0,0.845-0.141,1.192-0.42
				c0.346-0.272,0.558-0.621,0.631-1.035c0.069-0.394-0.024-0.682-0.294-0.908c-0.293-0.244-0.79-0.375-1.477-0.388l-0.289-0.006
				l0.24-1.355h0.206c0.491,0,0.911-0.104,1.244-0.31c0.313-0.195,0.489-0.423,0.537-0.695c0.048-0.27-0.007-0.474-0.17-0.646
				c-0.169-0.177-0.396-0.264-0.693-0.264c-0.308,0-0.574,0.086-0.792,0.256c-0.236,0.184-0.467,0.475-0.683,0.863l-0.071,0.127
				H8.356l0.137-0.339c0.296-0.729,0.709-1.301,1.227-1.698c0.527-0.4,1.133-0.603,1.799-0.603c0.682,0,1.244,0.229,1.672,0.685
				c0.436,0.464,0.598,1.03,0.481,1.687c-0.108,0.62-0.438,1.139-0.981,1.54c0.268,0.209,0.474,0.466,0.61,0.766
				c0.191,0.412,0.245,0.866,0.16,1.351c-0.135,0.764-0.533,1.429-1.183,1.974C11.631,146.525,10.873,146.802,10.029,146.802z
				 M11.813,146.021c-0.533,0.355-1.131,0.534-1.784,0.534C10.684,146.556,11.28,146.377,11.813,146.021z M8.981,146.356
				c0.298,0.133,0.648,0.199,1.048,0.199C9.63,146.556,9.279,146.489,8.981,146.356z M8.059,144.372
				c0.048,0.612,0.222,1.084,0.518,1.401c0.332,0.355,0.82,0.536,1.453,0.536c0.723,0,1.374-0.239,1.935-0.709
				c0.558-0.469,0.898-1.034,1.013-1.681c0.068-0.39,0.028-0.735-0.121-1.059c-0.146-0.317-0.393-0.571-0.733-0.754l-0.389-0.21
				l0.383-0.222c0.615-0.354,0.967-0.816,1.071-1.413c0.09-0.501-0.027-0.914-0.354-1.262c-0.335-0.357-0.766-0.531-1.313-0.531
				c-0.556,0-1.06,0.17-1.501,0.504c-0.364,0.277-0.671,0.664-0.916,1.151h0.42c0.229-0.386,0.476-0.683,0.736-0.886
				c0.308-0.239,0.675-0.36,1.097-0.36c0.435,0,0.788,0.14,1.051,0.417c0.272,0.286,0.373,0.646,0.299,1.069
				c-0.074,0.414-0.33,0.761-0.764,1.03c-0.362,0.224-0.799,0.351-1.296,0.379l-0.069,0.392c0.66,0.047,1.162,0.211,1.496,0.49
				c0.408,0.341,0.564,0.803,0.465,1.37c-0.095,0.536-0.367,0.985-0.81,1.337c-0.438,0.35-0.942,0.526-1.5,0.526
				c-0.572,0-1.001-0.152-1.276-0.455c-0.227-0.247-0.377-0.605-0.448-1.062H8.059z M9.539,145.535
				c0.19,0.072,0.42,0.109,0.689,0.109C9.96,145.645,9.729,145.607,9.539,145.535z M7.803,144.228
				c0.02,0.457,0.101,0.849,0.243,1.173c-0.139-0.317-0.22-0.701-0.242-1.146L7.803,144.228z M7.8,144.125h0.92l0.012,0.096
				c-0.004-0.031-0.007-0.062-0.01-0.096H7.8z M12.238,141.89L12.238,141.89c0.364,0.195,0.635,0.464,0.807,0.798
				c-0.143-0.28-0.356-0.513-0.636-0.696l-0.156-0.104l0.124-0.08C12.332,141.834,12.286,141.862,12.238,141.89L12.238,141.89z
				 M10.284,142.399L10.284,142.399c0.028,0.001,0.057,0.001,0.082,0.002l-0.081-0.004l0.152-0.863l0.1-0.003
				c0.497-0.014,0.925-0.13,1.275-0.346c0.062-0.039,0.12-0.08,0.176-0.123c-0.056,0.042-0.113,0.084-0.176,0.123
				c-0.374,0.23-0.836,0.347-1.375,0.347L10.284,142.399z M9.665,140.37L9.665,140.37c0.233-0.417,0.484-0.733,0.747-0.937
				c0.264-0.204,0.58-0.309,0.944-0.309c-0.364,0-0.682,0.104-0.944,0.309c-0.249,0.193-0.488,0.488-0.711,0.876L9.665,140.37z
				 M11.52,138.224c-0.611,0-1.167,0.186-1.65,0.554c-0.031,0.023-0.062,0.048-0.092,0.073c0.03-0.025,0.061-0.05,0.092-0.073
				C10.354,138.409,10.909,138.224,11.52,138.224z"/>
		</g>
	</g>
</g>
<g>
	<g>
		<g>
			<path fill="#FFFFFF" d="M5.717,161.478H4.794l1.239-7.029H4.743l0.725-0.911h1.649L5.717,161.478z"/>
			<path fill="#FFFFFF" d="M5.82,161.601H4.647l1.24-7.028h-1.4l0.922-1.158h1.855L5.82,161.601z M4.94,161.355h0.672l1.357-7.694
				H5.527l-0.529,0.664H6.18L4.94,161.355z"/>
		</g>
		<g>
			<path fill="#FFFFFF" d="M5.82,161.601H4.647l1.24-7.028h-1.4l0.922-1.158h1.855L5.82,161.601z M4.94,161.355h0.672l1.357-7.694
				H5.527l-0.529,0.664H6.18L4.94,161.355z"/>
			<path fill="#FFFFFF" d="M5.923,161.725H4.5l1.24-7.029H4.231l1.118-1.404H7.41L5.923,161.725z M5.717,161.478l0.936-5.308
				L5.717,161.478z M5.088,161.231h0.421l1.314-7.447H5.586l-0.332,0.418h1.073L5.088,161.231z M5.468,153.537h1.649H5.468z"/>
		</g>
	</g>
	<g>
		<g>
			<path fill="#FFFFFF" d="M13.24,159.668h-0.944l-0.319,1.81h-0.922l0.319-1.81H7.566l5.573-6.325h0.271l-0.957,5.424h0.943
				L13.24,159.668z M11.533,158.767l0.516-2.929l-2.588,2.929H11.533z"/>
			<path fill="#FFFFFF" d="M12.079,161.601h-1.172l0.32-1.811H7.293l5.791-6.571h0.475l-0.026,0.145l-0.931,5.28h0.942l-0.2,1.146
				h-0.945L12.079,161.601z M11.202,161.355h0.671l0.319-1.811h0.943l0.116-0.656h-0.945l0.026-0.144l0.932-5.279h-0.069
				l-5.356,6.079h3.682L11.202,161.355z M11.636,158.889H9.188l3.06-3.461L11.636,158.889z M9.734,158.644h1.696l0.421-2.396
				L9.734,158.644z"/>
		</g>
		<g>
			<path fill="#FFFFFF" d="M12.079,161.601h-1.172l0.32-1.811H7.293l5.791-6.571h0.475l-0.026,0.145l-0.931,5.28h0.942l-0.2,1.146
				h-0.945L12.079,161.601z M11.202,161.355h0.671l0.319-1.811h0.943l0.116-0.656h-0.945l0.026-0.144l0.932-5.279h-0.069
				l-5.356,6.079h3.682L11.202,161.355z M11.636,158.889H9.188l3.06-3.461L11.636,158.889z M9.734,158.644h1.696l0.421-2.396
				L9.734,158.644z"/>
			<path fill="#FFFFFF" d="M12.183,161.725H10.76l0.32-1.811H7.02l6.009-6.818h0.678l-0.958,5.424h0.942l-0.242,1.395h-0.946
				L12.183,161.725z M11.055,161.478l0.319-1.81L11.055,161.478z M11.35,161.231h0.421l0.319-1.811h0.943l0.07-0.408h-0.944
				l0.925-5.233l-4.972,5.642h3.557L11.35,161.231z M7.566,159.668l5.573-6.325h0.271l-0.025,0.144l-0.932,5.28h0.943h-0.943
				l0.026-0.145l0.931-5.279H13.14L7.566,159.668z M11.739,159.013H8.914l3.53-3.994L11.739,159.013z M10.008,158.52h1.319
				l0.327-1.864L10.008,158.52z M12.049,155.838l-0.121,0.693L12.049,155.838z"/>
		</g>
	</g>
</g>
<g>
	<g>
		<g>
			<path fill="#FFFFFF" d="M5.452,176.303H4.529l1.239-7.029H4.478l0.725-0.911h1.649L5.452,176.303z"/>
			<path fill="#FFFFFF" d="M5.556,176.426H4.382l1.24-7.028h-1.4l0.922-1.158h1.855L5.556,176.426z M4.676,176.18h0.672l1.357-7.693
				H5.263l-0.529,0.664h1.182L4.676,176.18z"/>
		</g>
		<g>
			<path fill="#FFFFFF" d="M5.556,176.426H4.382l1.24-7.028h-1.4l0.922-1.158h1.855L5.556,176.426z M4.676,176.18h0.672l1.357-7.693
				H5.263l-0.529,0.664h1.182L4.676,176.18z"/>
			<path fill="#FFFFFF" d="M5.659,176.55H4.235l1.24-7.029H3.967l1.118-1.404h2.061L5.659,176.55z M5.452,176.303l0.936-5.309
				L5.452,176.303z M4.823,176.056h0.421l1.314-7.446H5.322l-0.332,0.418h1.073L4.823,176.056z M5.203,168.362h1.649H5.203z"/>
		</g>
	</g>
	<g>
		<g>
			<path fill="#FFFFFF" d="M13.52,169.252h-2.788l-0.701,1.943c0.325-0.082,0.625-0.119,0.9-0.119c0.701,0,1.243,0.246,1.626,0.741
				c0.382,0.497,0.506,1.126,0.371,1.893s-0.503,1.424-1.106,1.969c-0.603,0.547-1.327,0.821-2.172,0.821
				c-0.651,0-1.165-0.201-1.544-0.598c-0.378-0.399-0.554-0.945-0.524-1.64h0.943c0.018,0.437,0.15,0.769,0.4,1
				c0.247,0.23,0.557,0.347,0.926,0.347c0.49,0,0.947-0.187,1.367-0.559c0.42-0.373,0.679-0.834,0.776-1.384
				c0.087-0.492,0.004-0.896-0.248-1.214c-0.251-0.318-0.638-0.478-1.158-0.478s-1.154,0.147-1.9,0.444l1.475-4.058h3.516
				L13.52,169.252z"/>
			<path fill="#FFFFFF" d="M9.649,176.622c-0.682,0-1.231-0.214-1.633-0.635c-0.401-0.423-0.589-1.005-0.559-1.729l0.005-0.117h1.18
				l0.005,0.117c0.016,0.405,0.133,0.703,0.36,0.913c0.226,0.212,0.5,0.315,0.842,0.315c0.457,0,0.891-0.178,1.285-0.528
				c0.397-0.354,0.646-0.795,0.737-1.312c0.08-0.46,0.008-0.826-0.223-1.117s-0.577-0.431-1.062-0.431
				c-0.502,0-1.126,0.146-1.855,0.437l-0.254,0.101l1.598-4.396h3.748l-0.201,1.136h-2.804l-0.597,1.65
				c1.069-0.209,1.904,0.034,2.432,0.717c0.402,0.522,0.537,1.191,0.396,1.989c-0.141,0.793-0.525,1.479-1.145,2.039
				C11.281,176.336,10.522,176.622,9.649,176.622z M7.701,174.386c-0.004,0.601,0.162,1.083,0.494,1.433
				c0.354,0.37,0.843,0.559,1.454,0.559c0.809,0,1.513-0.266,2.089-0.789c0.578-0.523,0.938-1.162,1.068-1.898
				c0.129-0.737,0.016-1.324-0.348-1.798c-0.36-0.465-0.861-0.692-1.528-0.692c-0.27,0-0.562,0.038-0.87,0.115l-0.225,0.056
				l0.809-2.242h2.771l0.113-0.642h-3.281l-1.354,3.723c1.419-0.517,2.44-0.477,2.947,0.167c0.273,0.346,0.365,0.787,0.272,1.312
				c-0.102,0.573-0.376,1.062-0.815,1.455c-0.442,0.391-0.93,0.589-1.449,0.589c-0.401,0-0.741-0.128-1.011-0.381
				c-0.249-0.23-0.393-0.555-0.431-0.966H7.701z"/>
		</g>
		<g>
			<path fill="#FFFFFF" d="M9.649,176.622c-0.682,0-1.231-0.214-1.633-0.635c-0.401-0.423-0.589-1.005-0.559-1.729l0.005-0.117h1.18
				l0.005,0.117c0.016,0.405,0.133,0.703,0.36,0.913c0.226,0.212,0.5,0.315,0.842,0.315c0.457,0,0.891-0.178,1.285-0.528
				c0.397-0.354,0.646-0.795,0.737-1.312c0.08-0.46,0.008-0.826-0.223-1.117s-0.577-0.431-1.062-0.431
				c-0.502,0-1.126,0.146-1.855,0.437l-0.254,0.101l1.598-4.396h3.748l-0.201,1.136h-2.804l-0.597,1.65
				c1.069-0.209,1.904,0.034,2.432,0.717c0.402,0.522,0.537,1.191,0.396,1.989c-0.141,0.793-0.525,1.479-1.145,2.039
				C11.281,176.336,10.522,176.622,9.649,176.622z M7.701,174.386c-0.004,0.601,0.162,1.083,0.494,1.433
				c0.354,0.37,0.843,0.559,1.454,0.559c0.809,0,1.513-0.266,2.089-0.789c0.578-0.523,0.938-1.162,1.068-1.898
				c0.129-0.737,0.016-1.324-0.348-1.798c-0.36-0.465-0.861-0.692-1.528-0.692c-0.27,0-0.562,0.038-0.87,0.115l-0.225,0.056
				l0.809-2.242h2.771l0.113-0.642h-3.281l-1.354,3.723c1.419-0.517,2.44-0.477,2.947,0.167c0.273,0.346,0.365,0.787,0.272,1.312
				c-0.102,0.573-0.376,1.062-0.815,1.455c-0.442,0.391-0.93,0.589-1.449,0.589c-0.401,0-0.741-0.128-1.011-0.381
				c-0.249-0.23-0.393-0.555-0.431-0.966H7.701z"/>
			<path fill="#FFFFFF" d="M9.649,176.746c-0.716,0-1.296-0.227-1.722-0.675c-0.426-0.447-0.625-1.059-0.593-1.818l0.011-0.236
				h1.417l0.009,0.236c0.014,0.37,0.119,0.642,0.321,0.828c0.203,0.189,0.451,0.282,0.758,0.282c0.427,0,0.832-0.168,1.203-0.497
				c0.376-0.335,0.611-0.752,0.697-1.241c0.074-0.423,0.01-0.756-0.197-1.021c-0.429-0.54-1.41-0.499-2.776,0.045l-0.509,0.202
				l1.72-4.735h3.983l-0.245,1.382h-2.821l-0.494,1.371c1.024-0.149,1.821,0.124,2.341,0.797c0.426,0.553,0.566,1.254,0.42,2.087
				c-0.146,0.82-0.544,1.529-1.184,2.108C11.34,176.448,10.554,176.746,9.649,176.746z M7.826,174.51
				c0.018,0.511,0.172,0.921,0.458,1.223c0.329,0.345,0.788,0.521,1.365,0.521c0.78,0,1.455-0.254,2.007-0.758
				c0.557-0.503,0.903-1.118,1.028-1.827c0.123-0.701,0.017-1.257-0.324-1.7c-0.336-0.435-0.805-0.646-1.43-0.646
				c-0.261,0-0.543,0.037-0.84,0.112l-0.45,0.111l0.917-2.541h2.756l0.069-0.396h-3.049l-1.235,3.397
				c1.368-0.449,2.336-0.346,2.839,0.294c0.296,0.373,0.396,0.847,0.297,1.408c-0.106,0.603-0.394,1.115-0.855,1.527
				c-0.465,0.411-0.979,0.619-1.53,0.619c-0.434,0-0.802-0.14-1.095-0.414c-0.248-0.229-0.4-0.542-0.456-0.932H7.826z
				 M12.728,174.407c-0.194,0.477-0.497,0.901-0.906,1.271c-0.267,0.243-0.562,0.433-0.88,0.568c0.318-0.136,0.613-0.324,0.88-0.568
				C12.23,175.309,12.533,174.884,12.728,174.407z M11.915,173.985c-0.13,0.409-0.362,0.767-0.698,1.065
				c-0.081,0.072-0.164,0.137-0.248,0.196c0.084-0.06,0.167-0.124,0.248-0.196C11.553,174.752,11.785,174.395,11.915,173.985z
				 M7.581,174.263h0.94l0.01,0.11c-0.003-0.035-0.006-0.072-0.007-0.11H7.581z M10.161,168.362l-1.475,4.058
				c0.061-0.024,0.122-0.048,0.181-0.07l-0.179,0.065L10.161,168.362h3.515l-0.083,0.468l0.084-0.468H10.161z M10.731,169.252
				l-0.26,0.718L10.731,169.252z"/>
		</g>
	</g>
</g>
<g>
	<g>
		<g>
			<path fill="#FFFFFF" d="M5.778,191.479H4.855l1.239-7.03H4.804l0.725-0.91h1.649L5.778,191.479z"/>
			<path fill="#FFFFFF" d="M5.881,191.603H4.708l1.24-7.029h-1.4l0.922-1.157h1.855L5.881,191.603z M5.001,191.356h0.672
				l1.357-7.694H5.588l-0.529,0.665h1.182L5.001,191.356z"/>
		</g>
		<g>
			<path fill="#FFFFFF" d="M5.881,191.603H4.708l1.24-7.029h-1.4l0.922-1.157h1.855L5.881,191.603z M5.001,191.356h0.672
				l1.357-7.694H5.588l-0.529,0.665h1.182L5.001,191.356z"/>
			<path fill="#FFFFFF" d="M5.984,191.727H4.561l1.24-7.03H4.292l1.118-1.403h2.061L5.984,191.727z M5.778,191.479l0.936-5.309
				L5.778,191.479z M5.149,191.232H5.57l1.314-7.447H5.647l-0.332,0.419h1.073L5.149,191.232z M5.529,183.539h1.649H5.529z"/>
		</g>
	</g>
	<g>
		<g>
			<path fill="#FFFFFF" d="M10.701,186.88c0.243-0.065,0.469-0.097,0.679-0.097c0.601,0,1.081,0.238,1.446,0.715
				c0.365,0.478,0.487,1.056,0.366,1.735c-0.119,0.681-0.463,1.258-1.031,1.731c-0.568,0.473-1.202,0.711-1.904,0.711
				c-0.703,0-1.244-0.239-1.626-0.716c-0.381-0.479-0.513-1.06-0.391-1.748c0.059-0.332,0.183-0.674,0.376-1.024
				c0.192-0.351,0.501-0.779,0.932-1.285l3.042-3.591l0.694,0.488L10.701,186.88z M10.438,190.764c0.428,0,0.821-0.15,1.182-0.456
				c0.361-0.304,0.581-0.673,0.656-1.106c0.077-0.434-0.011-0.803-0.26-1.105c-0.25-0.305-0.592-0.456-1.027-0.456
				c-0.434,0-0.829,0.151-1.186,0.456c-0.357,0.303-0.574,0.672-0.651,1.105c-0.076,0.434,0.011,0.803,0.266,1.106
				C9.672,190.613,10.012,190.764,10.438,190.764z"/>
			<path fill="#FFFFFF" d="M10.257,191.799c-0.737,0-1.317-0.256-1.723-0.763c-0.403-0.505-0.543-1.125-0.417-1.845
				c0.062-0.35,0.193-0.706,0.39-1.063c0.195-0.356,0.513-0.796,0.945-1.307l3.115-3.676l0.896,0.631l-0.087,0.104l-2.354,2.807
				c0.808-0.121,1.442,0.138,1.901,0.736c0.385,0.504,0.516,1.12,0.39,1.832c-0.125,0.707-0.486,1.314-1.074,1.804
				C11.651,191.55,10.983,191.799,10.257,191.799z M12.61,183.477l-2.969,3.506c-0.422,0.497-0.73,0.923-0.917,1.265
				c-0.185,0.334-0.307,0.666-0.363,0.986c-0.116,0.656,0.003,1.195,0.365,1.648c0.363,0.451,0.863,0.671,1.531,0.671
				c0.668,0,1.282-0.23,1.825-0.684c0.542-0.451,0.876-1.009,0.989-1.657c0.115-0.65,0.003-1.187-0.343-1.639
				c-0.467-0.608-1.122-0.812-1.995-0.573l-0.379,0.102l2.748-3.278L12.61,183.477z M10.438,190.887
				c-0.463,0-0.838-0.168-1.115-0.499c-0.277-0.331-0.375-0.737-0.293-1.207c0.082-0.462,0.315-0.859,0.692-1.18
				c0.376-0.321,0.804-0.484,1.266-0.484c0.472,0,0.85,0.169,1.122,0.501c0.273,0.331,0.369,0.737,0.287,1.205
				c-0.081,0.461-0.316,0.857-0.7,1.181C11.319,190.725,10.895,190.887,10.438,190.887z M10.989,187.763
				c-0.402,0-0.774,0.145-1.106,0.426c-0.334,0.283-0.539,0.632-0.61,1.034c-0.07,0.4,0.007,0.73,0.239,1.007
				c0.231,0.276,0.535,0.411,0.926,0.411c0.396,0,0.768-0.144,1.102-0.427c0.339-0.284,0.545-0.632,0.615-1.033
				c0.071-0.399-0.006-0.729-0.234-1.008C11.694,187.897,11.39,187.763,10.989,187.763z"/>
		</g>
		<g>
			<path fill="#FFFFFF" d="M10.257,191.799c-0.737,0-1.317-0.256-1.723-0.763c-0.403-0.505-0.543-1.125-0.417-1.845
				c0.062-0.35,0.193-0.706,0.39-1.063c0.195-0.356,0.513-0.796,0.945-1.307l3.115-3.676l0.896,0.631l-0.087,0.104l-2.354,2.807
				c0.808-0.121,1.442,0.138,1.901,0.736c0.385,0.504,0.516,1.12,0.39,1.832c-0.125,0.707-0.486,1.314-1.074,1.804
				C11.651,191.55,10.983,191.799,10.257,191.799z M12.61,183.477l-2.969,3.506c-0.422,0.497-0.73,0.923-0.917,1.265
				c-0.185,0.334-0.307,0.666-0.363,0.986c-0.116,0.656,0.003,1.195,0.365,1.648c0.363,0.451,0.863,0.671,1.531,0.671
				c0.668,0,1.282-0.23,1.825-0.684c0.542-0.451,0.876-1.009,0.989-1.657c0.115-0.65,0.003-1.187-0.343-1.639
				c-0.467-0.608-1.122-0.812-1.995-0.573l-0.379,0.102l2.748-3.278L12.61,183.477z M10.438,190.887
				c-0.463,0-0.838-0.168-1.115-0.499c-0.277-0.331-0.375-0.737-0.293-1.207c0.082-0.462,0.315-0.859,0.692-1.18
				c0.376-0.321,0.804-0.484,1.266-0.484c0.472,0,0.85,0.169,1.122,0.501c0.273,0.331,0.369,0.737,0.287,1.205
				c-0.081,0.461-0.316,0.857-0.7,1.181C11.319,190.725,10.895,190.887,10.438,190.887z M10.989,187.763
				c-0.402,0-0.774,0.145-1.106,0.426c-0.334,0.283-0.539,0.632-0.61,1.034c-0.07,0.4,0.007,0.73,0.239,1.007
				c0.231,0.276,0.535,0.411,0.926,0.411c0.396,0,0.768-0.144,1.102-0.427c0.339-0.284,0.545-0.632,0.615-1.033
				c0.071-0.399-0.006-0.729-0.234-1.008C11.694,187.897,11.39,187.763,10.989,187.763z"/>
			<path fill="#FFFFFF" d="M10.257,191.923c-0.776,0-1.388-0.273-1.819-0.81c-0.426-0.533-0.575-1.187-0.441-1.942
				c0.064-0.362,0.2-0.733,0.404-1.103c0.199-0.363,0.521-0.81,0.958-1.326l3.188-3.762l1.099,0.773l-2.334,2.781
				c0.71-0.025,1.279,0.249,1.711,0.813c0.406,0.532,0.546,1.181,0.413,1.928c-0.129,0.737-0.505,1.369-1.116,1.877
				C11.706,191.663,11.013,191.923,10.257,191.923z M12.631,183.643l-2.896,3.419c-0.415,0.489-0.719,0.907-0.904,1.244
				c-0.178,0.322-0.295,0.642-0.35,0.949c-0.109,0.619,0.002,1.127,0.341,1.551c0.337,0.419,0.807,0.623,1.435,0.623
				c0.638,0,1.226-0.22,1.746-0.653s0.838-0.966,0.947-1.584c0.108-0.615,0.005-1.12-0.32-1.543
				c-0.442-0.579-1.051-0.753-1.864-0.53l-0.758,0.204l2.913-3.476L12.631,183.643z M8.608,188.2
				c-0.106,0.193-0.191,0.388-0.256,0.578C8.417,188.588,8.502,188.394,8.608,188.2z M12.259,183.7l-2.711,3.202
				c-0.418,0.491-0.728,0.918-0.919,1.263c0.193-0.346,0.502-0.772,0.919-1.263L12.259,183.7z M12.431,187.105
				c0.144,0.105,0.275,0.237,0.396,0.393c0.043,0.058,0.082,0.113,0.119,0.173c-0.036-0.06-0.075-0.117-0.119-0.173
				C12.707,187.342,12.574,187.21,12.431,187.105z M13.282,183.8l-1.647,1.967L13.282,183.8L13.282,183.8z M10.438,191.011
				c-0.501,0-0.908-0.183-1.209-0.544c-0.301-0.36-0.409-0.801-0.32-1.307c0.087-0.492,0.334-0.913,0.734-1.253
				c0.399-0.341,0.853-0.515,1.346-0.515c0.511,0,0.919,0.185,1.219,0.546c0.296,0.36,0.401,0.8,0.312,1.306
				c-0.086,0.49-0.335,0.911-0.742,1.253C11.375,190.839,10.925,191.011,10.438,191.011z M10.989,187.887
				c-0.372,0-0.717,0.133-1.026,0.396c-0.311,0.265-0.502,0.588-0.568,0.962c-0.063,0.363,0.006,0.66,0.212,0.906
				c0.208,0.247,0.479,0.367,0.832,0.367c0.366,0,0.711-0.134,1.021-0.398c0.315-0.265,0.509-0.588,0.574-0.959
				c0.064-0.362-0.004-0.66-0.208-0.908C11.621,188.003,11.354,187.887,10.989,187.887z M11.805,190.133
				c-0.057,0.061-0.118,0.12-0.186,0.175c-0.081,0.069-0.164,0.13-0.249,0.183c0.085-0.053,0.168-0.113,0.249-0.183
				C11.687,190.253,11.748,190.193,11.805,190.133z M10.989,187.64c-0.434,0-0.832,0.153-1.186,0.455
				c-0.104,0.089-0.198,0.184-0.278,0.285c0.081-0.102,0.174-0.196,0.278-0.285C10.158,187.793,10.558,187.64,10.989,187.64z"/>
		</g>
	</g>
</g>
<g>
	<g>
		<g>
			<path fill="#FFFFFF" d="M5.152,206.287H4.229l1.239-7.029H4.178l0.725-0.91h1.649L5.152,206.287z"/>
			<path fill="#FFFFFF" d="M5.255,206.41H4.082l1.24-7.029h-1.4l0.922-1.157h1.855L5.255,206.41z M4.375,206.164h0.672l1.357-7.694
				H4.962l-0.529,0.665h1.182L4.375,206.164z"/>
		</g>
		<g>
			<path fill="#FFFFFF" d="M5.255,206.41H4.082l1.24-7.029h-1.4l0.922-1.157h1.855L5.255,206.41z M4.375,206.164h0.672l1.357-7.694
				H4.962l-0.529,0.665h1.182L4.375,206.164z"/>
			<path fill="#FFFFFF" d="M5.358,206.534H3.935l1.24-7.03H3.667l1.118-1.403h2.061L5.358,206.534z M5.152,206.287l0.936-5.309
				L5.152,206.287z M4.523,206.04h0.421l1.314-7.447H5.021l-0.332,0.419h1.073L4.523,206.04z M4.903,198.348h1.649H4.903z"/>
		</g>
	</g>
	<g>
		<g>
			<path fill="#FFFFFF" d="M13.8,198.348l-5.694,8.168l-0.697-0.413l4.791-6.866H8.511l0.157-0.889H13.8z"/>
			<path fill="#FFFFFF" d="M8.142,206.68l-0.91-0.539l4.732-6.781h-3.6l0.201-1.136h5.471L8.142,206.68z M7.586,206.063l0.485,0.287
				l5.493-7.881H8.771l-0.113,0.643h3.778L7.586,206.063z"/>
		</g>
		<g>
			<path fill="#FFFFFF" d="M8.142,206.68l-0.91-0.539l4.732-6.781h-3.6l0.201-1.136h5.471L8.142,206.68z M7.586,206.063l0.485,0.287
				l5.493-7.881H8.771l-0.113,0.643h3.778L7.586,206.063z"/>
			<path fill="#FFFFFF" d="M8.178,206.845l-1.123-0.665l4.673-6.698H8.217l0.245-1.381h5.81L8.178,206.845z M7.409,206.103
				l0.697,0.413l2.277-3.268l-2.277,3.268L7.409,206.103l0.389-0.558L7.409,206.103z M7.763,206.025l0.271,0.161l5.292-7.594H8.875
				l-0.07,0.396h3.867L7.763,206.025z M8.667,198.348H13.8H8.667z"/>
		</g>
	</g>
</g>
</svg>
